/* XPM */
static char *result[] = {
/* columns rows colors chars-per-pixel */
"64 64 140 2 ",
"   c #151615",
".  c #171817",
"X  c #1A1718",
"o  c #1C1C1C",
"O  c #201F1E",
"+  c #1E201E",
"@  c #221F20",
"#  c #242424",
"$  c #292526",
"%  c #262826",
"&  c #282A27",
"*  c #252528",
"=  c #272828",
"-  c #2B2B2A",
";  c #302C2D",
":  c #2E312E",
">  c #30322F",
",  c #333333",
"<  c #3A3434",
"1  c #373836",
"2  c #383A37",
"3  c #363639",
"4  c #373839",
"5  c #3B3B3B",
"6  c #423B3C",
"7  c #3F413E",
"8  c #40423F",
"9  c #3D3D41",
"0  c #443F40",
"q  c #434343",
"w  c #4B4344",
"e  c #474946",
"r  c #484B47",
"t  c #4E4748",
"y  c #4B4C4B",
"u  c #504747",
"i  c #504748",
"p  c #544C4D",
"a  c #584F4F",
"s  c #4E504D",
"d  c #50524F",
"f  c #4D4D52",
"g  c #514F53",
"h  c #594F50",
"j  c #4F5052",
"k  c #535453",
"l  c #5B5253",
"z  c #565955",
"x  c #585A57",
"c  c #555559",
"v  c #5B5C5B",
"b  c #605657",
"n  c #615758",
"m  c #645B5C",
"M  c #5E605D",
"N  c #60625F",
"B  c #5C5C62",
"V  c #635F62",
"C  c #695F60",
"Z  c #5F6060",
"A  c #636363",
"S  c #6C6364",
"D  c #666966",
"F  c #686A67",
"G  c #65656B",
"H  c #6A6768",
"J  c #6C6C6C",
"K  c #706667",
"L  c #716768",
"P  c #736B6C",
"I  c #6F716E",
"U  c #676670",
"Y  c #6D6D71",
"T  c #706F74",
"R  c #706F7A",
"E  c #737474",
"W  c #7A7373",
"Q  c #777976",
"!  c #787B77",
"~  c #75747B",
"^  c #79777E",
"/  c #7B7C7B",
"(  c #7F807E",
")  c #80837F",
"_  c #767581",
"`  c #7C7C83",
"'  c #7E7D8A",
"]  c #807F84",
"[  c #807F8A",
"{  c #838583",
"}  c #8A8787",
"|  c #84848A",
" . c #88878D",
".. c #8B8A8D",
"X. c #868593",
"o. c #888790",
"O. c #8B8B92",
"+. c #8D8C99",
"@. c #949395",
"#. c #989897",
"$. c #93929C",
"%. c #9C9B9C",
"&. c #9696A3",
"*. c #9897A0",
"=. c #9B9AA4",
"-. c #9C9AA8",
";. c #A09FA9",
":. c #A3A3A3",
">. c #A5A4AC",
",. c #ACACAC",
"<. c #A4A3B1",
"1. c #ACABB4",
"2. c #AEADBC",
"3. c #B4B4B4",
"4. c #B3B2BB",
"5. c #BCBCBD",
"6. c #AFAEC0",
"7. c #B6B5C6",
"8. c #BDBCC3",
"9. c #B8B7C9",
"0. c #BEBDCF",
"q. c #C0BFC5",
"w. c #C0BFCD",
"e. c #C4C4C4",
"r. c #C8C8C7",
"t. c #C4C4CB",
"y. c #CBCACB",
"u. c #C7C5D5",
"i. c #CECDD4",
"p. c #CECDDB",
"a. c #D3D3D3",
"s. c #D6D5DF",
"d. c #DBDBDB",
"f. c #DFDEE8",
"g. c #E0DFEA",
"h. c #E4E3E4",
"j. c #E3E2EC",
"k. c #F3F2F6",
"l. c #F5F5F9",
"z. c None",
/* pixels */
"z.z.z.z.z.z.z.z.z.z.z.z.z.z.z.z.z.z.z.z.z.z.z.z.z.z.z.a.3./ v y y y P %.e.z.z.z.z.z.z.z.z.z.z.z.z.z.z.z.z.z.z.z.z.z.z.z.z.z.z.z.",
"z.z.z.z.z.z.z.z.z.z.z.z.z.z.z.z.z.z.z.z.z.z.z.z.z.z.r.{ Q / | @.@. .` E ! ,.d.z.z.z.z.z.z.z.z.z.z.z.z.z.z.z.z.z.z.z.z.z.z.z.z.z.",
"z.z.z.z.z.z.z.z.z.z.z.z.z.z.z.z.z.z.z.z.z.z.z.z.z.d.=.N E $.q.d.d.i.>.` D J 5.z.z.z.z.z.z.z.z.z.z.z.z.z.z.z.z.z.z.z.z.z.z.z.z.z.",
"z.z.z.z.z.z.z.z.z.z.z.z.z.z.z.z.z.z.z.z.z.z.z.z.z.5./ N +.2.f.k.l.g.t.-.Q k @.d.z.z.z.z.z.z.z.z.z.z.z.z.z.z.z.z.z.z.z.z.z.z.z.z.",
"z.z.z.z.z.z.z.z.z.z.z.z.z.z.z.z.z.z.z.z.z.z.z.z.z.@.y A ^ =.w.f.g.p.1. .J g B ,.z.z.z.z.z.z.z.z.z.z.z.z.z.z.z.z.z.z.z.z.z.z.z.z.",
"z.z.z.z.z.z.z.z.z.z.z.z.z.z.z.z.z.z.z.z.z.z.z.z.z./ $ 3 q Z $.t.u.>.~ f 5 , q :.z.z.z.z.z.z.z.z.z.z.z.z.z.z.z.z.z.z.z.z.z.z.z.z.",
"z.z.z.z.z.z.z.z.z.z.z.z.z.z.z.z.z.z.z.z.z.z.z.z.z./ ; 0 y p ~ <.2.` v y e t y %.z.z.z.z.z.z.z.z.z.z.z.z.z.z.z.z.z.z.z.z.z.z.z.z.",
"z.z.z.z.z.z.z.z.z.z.z.z.z.z.z.z.z.z.z.z.z.z.z.z.h.{ e H ` v J &.>.G V J J ! x ;.z.z.z.z.z.z.z.z.z.z.z.z.z.z.z.z.z.z.z.z.z.z.z.z.",
"z.z.z.z.z.z.z.z.z.z.z.z.z.z.z.z.z.z.z.z.z.z.z.z.a.{ v } :.E ~ ;.1.Y ^ ....%.D @.z.z.z.z.z.z.z.z.z.z.z.z.z.z.z.z.z.z.z.z.z.z.z.z.",
"z.z.z.z.z.z.z.z.z.z.z.z.z.z.z.z.z.z.z.z.z.z.z.y.} c q Z ^ o.*.4.8.;.+.] G v e J 5.z.z.z.z.z.z.z.z.z.z.z.z.z.z.z.z.z.z.z.z.z.z.z.",
"z.z.z.z.z.z.z.z.z.z.z.z.z.z.z.z.z.z.z.z.z.z.h.} Z x D O.<.-.+...=.o.&.<.-.T v k E y.z.z.z.z.z.z.z.z.z.z.z.z.z.z.z.z.z.z.z.z.z.z.",
"z.z.z.z.z.z.z.z.z.z.z.z.z.z.z.z.z.z.z.z.z.z.h.{ f y U ;.0.<.+.[ $.[ =.7.7.^ k t H y.z.z.z.z.z.z.z.z.z.z.z.z.z.z.z.z.z.z.z.z.z.z.",
"z.z.z.z.z.z.z.z.z.z.z.z.z.z.z.z.z.z.z.z.z.z.z.3.J e k -.9.&.' _ | ~ +.6.7.U 5 v :.h.z.z.z.z.z.z.z.z.z.z.z.z.z.z.z.z.z.z.z.z.z.z.",
"z.z.z.z.z.z.z.z.z.z.z.z.z.z.z.z.z.z.z.z.z.z.z.z.a.E y =.1._ f 9 9 9 U &.2.G e @.z.z.z.z.z.z.z.z.z.z.z.z.z.z.z.z.z.z.z.z.z.z.z.z.",
"z.z.z.z.z.z.z.z.z.z.z.z.z.z.z.z.z.z.z.z.z.z.h.h.y.E y +.' [ X.+.+.+.' [ +.v t ..h.h.h.z.z.z.z.z.z.z.z.z.z.z.z.z.z.z.z.z.z.z.z.z.",
"z.z.z.z.z.z.z.z.z.z.z.z.z.z.z.z.z.z.z.z.y.%.{ ` Q y 4 B ` -.6.9.9.9.<.X.~ 4 , v / / ..3.d.z.z.z.z.z.z.z.z.z.z.z.z.z.z.z.z.z.z.z.",
"z.z.z.z.z.z.z.z.z.z.z.z.z.z.z.z.z.z.z.a...A k s s 7 : 7 J %.6.9.9.7.<.{ d # - 8 d d c E ,.z.z.z.z.z.z.z.z.z.z.z.z.z.z.z.z.z.z.z.",
"z.z.z.z.z.z.z.z.z.z.z.z.z.z.z.z.z.z.z.#.D v E Q F 8 : & q F | O.+.+.Q k > - 5 z I E F x ( a.z.z.z.z.z.z.z.z.z.z.z.z.z.z.z.z.z.z.",
"z.z.z.z.z.z.z.z.z.z.z.z.z.z.z.z.z.z.a.J N I ) ( I x 8 7 # : 5 9 5 7 , % : q d D Q { ! v J 3.z.z.z.z.z.z.z.z.z.z.z.z.z.z.z.z.z.z.",
"z.z.z.z.z.z.z.z.z.z.z.z.z.z.z.z.z.h.#.v F ( ( Q D M d 8 - + + o o o @ & 2 d M N I / { J D Q a.z.z.z.z.z.z.z.z.z.z.z.z.z.z.z.z.z.",
"z.z.z.z.z.z.z.z.z.z.z.z.z.z.z.z.z.d.! s I ( ( F N M M d 8 > & + $ + : 7 r x N N F Q ) ! A z e.z.z.z.z.z.z.z.z.z.z.z.z.z.z.z.z.z.",
"z.z.z.z.z.z.z.z.z.z.z.z.z.z.z.z.z.d.I s D ! E N M M M M z 8 7 7 5 7 q s x M M M N J ! ! v s 5.z.z.z.z.z.z.z.z.z.z.z.z.z.z.z.z.z.",
"z.z.z.z.z.z.z.z.z.z.z.z.z.z.z.z.z.d.I s M F N M M M x M x z d d s s z M M M v v N N J F k s 5.z.z.z.z.z.z.z.z.z.z.z.z.z.z.z.z.z.",
"z.z.z.z.z.z.z.z.z.z.z.z.z.z.z.z.z.d.I s z M M M z 8 8 z M M x M M M M x x d 7 e M N N N k s e.z.z.z.z.z.z.z.z.z.z.z.z.z.z.z.z.z.",
"z.z.z.z.z.z.z.z.z.z.z.z.z.z.z.z.z.d.I y d M M x r , , x M M M N M N M M M r : 7 z M M M s j e.z.z.z.z.z.z.z.z.z.z.z.z.z.z.z.z.z.",
"z.z.z.z.z.z.z.z.z.z.z.z.z.z.z.z.z.d.E q d v v x 8 : : x M D F I J I D M M 8 % : z M M M s s 5.z.z.z.z.z.z.z.z.z.z.z.z.z.z.z.z.z.",
"z.z.z.z.z.z.z.z.z.z.z.z.z.z.z.z.z.d.J 5 r k v x 7 & : M D I ( ) ( ( Q F M r % : z M x z q y 5.z.z.z.z.z.z.z.z.z.z.z.z.z.z.z.z.z.",
"z.z.z.z.z.z.z.z.z.z.z.z.z.z.z.z.z.d.J 1 1 r k x 7 & : z ( ) ) ..{ { ( ( D r % : d v s 7 1 e 5.z.z.z.z.z.z.z.z.z.z.z.z.z.z.z.z.z.",
"z.z.z.z.z.z.z.z.z.z.z.z.z.z.z.e.3.@.y > 5 r k x 8 & : M ( ( ) ) ) ( ( ( D r & 7 k M r 7 , , { >.e.h.z.z.z.z.z.z.z.z.z.z.z.z.z.z.",
"z.z.z.z.z.z.z.z.z.z.z.z.d.q.:.{ I v , # r N v d 7 & : z Q ( ) ) ..( ( ( M 7 + & s v M z 5 # k J / #.3.d.z.z.z.z.z.z.z.z.z.z.z.z.",
"z.z.z.z.z.z.z.z.z.z.z.e.%.Q m c e , # # z E F r > % : d I ( ( ( ) ) ( I z 7 + & q x Q D 8 o > 0 k A J @.3.d.z.z.z.z.z.z.z.z.z.z.",
"z.z.z.z.z.z.z.z.z.d.5.Q d k x k 5 # * # v Q D 8 & & 1 8 M I ( ( ( ( ( N s 7 : & 1 z ! H e # # , y v z y A #.d.h.z.z.z.z.z.z.z.z.",
"z.z.z.z.z.z.d.,.~ y A v f 5 , , , , , = z F z 5 # & , 5 r s s k z d s r 7 7 & & > y D Z e - , , , , 9 q B c y G ..y.z.z.z.z.z.z.",
"z.z.z.z.z.h.1. .R B e 9 5 > , , , 5 5 % s M r , o o + + % = & & & : & % % % + + : 7 M z q , 5 q q 5 , , 9 e f U ` =.y.z.z.z.z.z.",
"z.z.z.z.z.y.o.~ _ ~ , - > , , 5 5 5 1 # 7 y 7 % + o # $ , 5 , $ + : 7 1 :   + + & 1 s q 1 , q y y q , , - 9 B _ ` Q $.z.z.z.z.z.",
"z.z.z.z.z.5.Y B U G * $ , 5 5 q q q 5 - , 1 , o * % = 5 v A c 4 7 r M M d . % % + : 1 > , 7 e 9 5 5 5 5 - 3 f B U c Q h.h.z.z.z.",
"z.z.z.z.z.5.k * = @   = 4 5 4 y y y V c 7 , - . # & - 5 m S x 0 , c D A M . & # . * : - 5 k 4 * = 4 3 5 , @ X - # , E h.h.z.z.z.",
"z.z.z.z.z.3.v 3 9 3 o * , , f B v k H E y - + + = - - ; < < ; - $ ; ; < > # & - $ o & > e V 5 , 9 0 3 : - = - 3 9 q ~ h.h.z.z.z.",
"z.z.z.z.z.5.E G _ R * = 5 e R ~ v y v J y $ o 5 p p t t 6 6 6 6 6 6 6 6 8 t u p w @ * 3 e g * 3 c G y f , 3 c R _ B ! h.h.z.z.z.",
"z.z.z.z.z.y.+.' +.+.f v F B ^ ] J k f D y , = p S K C m l a a h a a a l b S S L m , 7 7 q 0 * q G R B ] A B _ +.&.` @.z.z.z.z.z.",
"z.z.z.z.z.z.3.O.` ` >.e.3./ f ' o.Y c D c j k p K K C m l l h l l l a l b m K P K p { v 3 5 5 V R G D 5.5.>.@.` ` :.a.z.z.z.z.z.",
"z.z.z.z.z.z.z.a.r.y.z.z.h.3.l ` ` G y k m J J k N K S m l l h h a h a l b C K P P A ,./ e 5 9 G U J ..h.z.z.d.y.e.h.z.z.z.z.z.z.",
"z.z.z.z.z.z.z.z.z.z.z.z.z.d.{ c B G c H ,.1.! l S K K m l h a u w p a l n S P W P z i.e.} y v B f G e.z.z.z.z.z.z.z.z.z.z.z.z.z.",
"z.z.z.z.z.z.z.z.z.z.z.z.z.z.e.E G Q Q =.d.y./ l K P K m l l u 6 < u a l n K P W L p d.z.q./ ~ T J @.h.z.z.z.z.z.z.z.z.z.z.z.z.z.",
"z.z.z.z.z.z.z.z.z.z.z.z.z.z.z.5.:.,.,.d.z.d...n P P K m b a w ; $ 0 a b m K P L H A h.z.h.5.:.:.5.d.z.z.z.z.z.z.z.z.z.z.z.z.z.z.",
"z.z.z.z.z.z.z.z.z.z.z.z.z.z.z.z.z.z.z.z.z.z.r.J S K K S b l w < $ u a b C K P n v :.z.z.z.z.z.z.z.z.z.z.z.z.z.z.z.z.z.z.z.z.z.z.",
"z.z.z.z.z.z.z.z.z.z.z.z.z.z.z.z.z.z.z.z.z.z.d.J C K K K b b w < ; u a b C K K l v 3.z.z.z.z.z.z.z.z.z.z.z.z.z.z.z.z.z.z.z.z.z.z.",
"z.z.z.z.z.z.z.z.z.z.z.z.z.z.z.z.z.z.z.z.z.z.h.J m m K K b l u ; $ 6 a b C K K b v 5.z.z.z.z.z.z.z.z.z.z.z.z.z.z.z.z.z.z.z.z.z.z.",
"z.z.z.z.z.z.z.z.z.z.z.z.z.z.z.z.z.z.z.z.z.z.h.H m S S S n l u < ; w h n C S K k v 5.z.z.z.z.z.z.z.z.z.z.z.z.z.z.z.z.z.z.z.z.z.z.",
"z.z.z.z.z.z.z.z.z.z.z.z.z.z.z.z.z.z.z.z.z.z.h.J V S K S b l w < ; w a n C S K h v 5.z.z.z.z.z.z.z.z.z.z.z.z.z.z.z.z.z.z.z.z.z.z.",
"z.z.z.z.z.z.z.z.z.z.z.z.z.z.z.z.z.z.z.z.z.z.h.J m S K S n l t 4 ; 6 a n C K P l l 5.z.z.z.z.z.z.z.z.z.z.z.z.z.z.z.z.z.z.z.z.z.z.",
"z.z.z.z.z.z.z.z.z.z.z.z.z.z.z.z.z.z.z.z.z.z.h./ V m m n l a 6 ; $ 6 t h b n C v J e.z.z.z.z.z.z.z.z.z.z.z.z.z.z.z.z.z.z.z.z.z.z.",
"z.z.z.z.z.z.z.z.z.z.z.z.z.z.z.z.z.z.z.z.z.z.z.3.H l h 0 q 5 - @ X $ < 6 q i l H %.h.z.z.z.z.z.z.z.z.z.z.z.z.z.z.z.z.z.z.z.z.z.z.",
"z.z.z.z.z.z.z.z.z.z.z.z.z.z.z.z.z.z.z.z.z.z.z.h.T c v q 0 3 $ .   O - 3 5 k c ] r.z.z.z.z.z.z.z.z.z.z.z.z.z.z.z.z.z.z.z.z.z.z.z.",
"z.z.z.z.z.z.z.z.z.z.z.z.z.z.z.z.z.z.z.z.z.z.z.h.E U | E c y , * O > q k A ^ Q O.r.z.z.z.z.z.z.z.z.z.z.z.z.z.z.z.z.z.z.z.z.z.z.z.",
"z.z.z.z.z.z.z.z.z.z.z.z.z.z.z.z.z.z.z.z.z.z.z.h.E Q o.J v y 3 $ o > e k V ] [ %.r.z.z.z.z.z.z.z.z.z.z.z.z.z.z.z.z.z.z.z.z.z.z.z.",
"z.z.z.z.z.z.z.z.z.z.z.z.z.z.z.z.z.z.z.z.z.z.z.r.G V ~ A c y , # @ > q k B Y U ) ,.h.z.z.z.z.z.z.z.z.z.z.z.z.z.z.z.z.z.z.z.z.z.z.",
"z.z.z.z.z.z.z.z.z.z.z.z.z.z.z.z.z.z.z.z.z.d.3.| k y c g c y 3 # O > q g l c f v ~ =.d.z.z.z.z.z.z.z.z.z.z.z.z.z.z.z.z.z.z.z.z.z.",
"z.z.z.z.z.z.z.z.z.z.z.z.z.z.z.z.z.z.z.z.d.3.` k g f y f k y , * O > q g k k f f f V ,.i.z.z.z.z.z.z.z.z.z.z.z.z.z.z.z.z.z.z.z.z.",
"z.z.z.z.z.z.z.z.z.z.z.z.z.z.z.z.z.z.z.h.%.` $.O.o.o.O.o.v q , * O > 9 c `  .o. . ...| | 3.z.z.z.z.z.z.z.z.z.z.z.z.z.z.z.z.z.z.z.",
"z.z.z.z.z.z.z.z.z.z.z.z.z.z.z.z.z.z.z.d.{ A ` / ^ Q ^ ^ k e 3 * O , 9 g Y ~ ^ ! ^ ~ H D :.z.z.z.z.z.z.z.z.z.z.z.z.z.z.z.z.z.z.z.",
"z.z.z.z.z.z.z.z.z.z.z.z.z.z.z.z.z.z.z.h. .z z v v v v v q 0 , O o , 5 e k l v v v v v Q ,.z.z.z.z.z.z.z.z.z.z.z.z.z.z.z.z.z.z.z.",
"z.z.z.z.z.z.z.z.z.z.z.z.z.z.z.z.z.z.z.z.,.A 3 5 , 5 5 5 : , = o   = > , 4 , 4 9 8 e D #.a.z.z.z.z.z.z.z.z.z.z.z.z.z.z.z.z.z.z.z.",
"z.z.z.z.z.z.z.z.z.z.z.z.z.z.z.z.z.z.z.z.h.@.- o o o o o o o o o o o o o o o o o - y ~ e.z.z.z.z.z.z.z.z.z.z.z.z.z.z.z.z.z.z.z.z."
};
