/* XPM */
static char *result[] = {
/* columns rows colors chars-per-pixel */
"64 64 62 1 ",
"  c #010101",
". c #0C0702",
"X c #070808",
"o c #0C0C0C",
"O c #120A02",
"+ c #190D03",
"@ c #1F170F",
"# c #0E1010",
"$ c #131313",
"% c #171818",
"& c #1B1B1B",
"* c #251405",
"= c #281B0F",
"- c #311A06",
"; c #261D16",
": c #2C1F13",
"> c #221D1A",
", c #2F261F",
"< c #232323",
"1 c #2B2B2B",
"2 c #333333",
"3 c #393531",
"4 c #3A3A3A",
"5 c #413D3B",
"6 c #414141",
"7 c #484747",
"8 c #4C4C4C",
"9 c #535353",
"0 c #5A5A5A",
"q c #656565",
"w c #6B6B6B",
"e c #706F6F",
"r c #737272",
"t c #787777",
"y c #7B7B7B",
"u c #838383",
"i c #888787",
"p c #8B8B8B",
"a c #908F8F",
"s c #949494",
"d c #999797",
"f c #9C9B9B",
"g c #A09F9F",
"h c #A3A2A2",
"j c #A8A7A7",
"k c #ACABAB",
"l c #B0AFAF",
"z c #B3B3B3",
"x c #BDBDBD",
"c c #C0BEBE",
"v c #C1C1C1",
"b c #CCCBCB",
"n c #D1CFCF",
"m c #D2D2D2",
"M c #D8D6D6",
"N c #DBDBDB",
"B c #E1DEDE",
"V c #E1E0E0",
"C c #ECEBEB",
"Z c #F3F3F3",
"A c #FFFFFF",
"S c None",
/* pixels */
"SSSSSSSSSSSSSSSSSSSSSSSSSSSSSSSSSSSSSSSSSSSSSSSSSSSSSSSSSSSSSSSS",
"SSSSSSSSSSSSSSSSSSSSSSSSSSSSSSSSSSSSSSSSSSSSSSSSSSSSSSSSSSSSSSSS",
"SSSSSSSSSSSSSSSSSSSSSSSSSSSSSSSSSSSSSSSSSSSSSSSSSSSSSSSSSSSSSSSS",
"SSSSSSSSSSSSSSSSSSSSSSSSSSSSSSSSSSSSSSSSSSSSSSSSSSSSSSSSSSSSSSSS",
"SSSSSSSSSSSSSSSSSSSSSSSSSSSSSSSSSSSSSSSSSSSSSSSSSSSSSSSSSSSSSSSS",
"SSSSSSSSSSSSSSSSSSSSSSSSSSSSSSSSSSSSSSSSSSSSSSSSSSSSSSSSSSSSSSSS",
"SSSSSSSSSSSSSSSSSSSSSSSSSSSSSSSSSSSSSSSSSSSSSSSSSSSSSSSSSSSSSSSS",
"SSSSSSSSSSSSSSSSSSSSSSSSSSSSSSSSSSSSSSSSSSSSSSSSSSSSSSSSSSSSSSSS",
"SSSSSSSSSSSSSSSSSSSSSSSSSSSSSSSSSSSSSSSSSSSSSSSSSSSSSSSSSSSSSSSS",
"SSSSSSSSSSSSSSSSSSSSSSSSSSSSSSSSSSSSSSSSSSSSSSSSSSSSSSSSSSSSSSSS",
"SSSSSSSSSSSSSSSSSSSSSSSSSSSSSSSSSSSSSSSSSSSSSSSSSSSSSSSSSSSSSSSS",
"SSSSSSSSSSSSSSSSSSSSSSSSSSSSSSSSSSSSSSSSSSSSSSSSSSSSSSSSSSSSSSSS",
"SSSSSSSSSSSSSSSSSSSSSSSSSSSSSSSSSSSSSSSSSSSSSSSSSSSSSSSSSSSSSSSS",
"SSSSSSSSSSSSSSSSSSVVSSSSSNvsXXXXsSSSSSSSSSSSSSSSSSSSSSSSSSSSSSSS",
"SSSSSSSSSSSSSSSSVVuySSSSNqXo<&&&osSSSSVSSSSSSSSSSSSSSSSSSSSSSSSS",
"SSSSSSSSSSSSSSSmhhuwSSSNq$&&&&&&&osNSNyfVVSSSSSSSSSSSSSSSSSSSSSS",
"SSSSSSSSSSSSSSvhAAuqSSSu$&&>&&&&&&XuSNwiuuSSSSSSSSSSSSSSSSSSSSSS",
"SSSSSSSSSSSSvuvACkiqSS6o&&&&&11111&oyNwhAAuVSSSSSSSSSSSSSSSSSSSS",
"SSSSSSSSSSShuzZClkuqSS6o&&&&1144421$uNwakA quVSSx      xSSSSSSSS",
"SSSSSSSSSSShuxACkguqSe<&&&<11444421<17wak6*>wfe68qwwwww86fSSSSSS",
"SSSSSSSSSxgiuvVxkfuqS6$&&&<111444441$&wph -.&<6wrfssfsfrq96gSSSS",
"SSSSSSShhpbvfvNzkjiqS6$&&<<124144442$&wif -.8wusgzxzxzzfduw9rSSS",
"SSSSSvvuvvZxslvzkhuqS4$&&<124424<&&<&<7ph -.esglxMMMNMNxlgsw9fSS",
"SSVvzipvAZbkjkzkjfiqu1&<<1144<&&o  X&&<ph -.ulvMvtyytyyxNvkhu9uS",
"SVhuusbAVvkvbxkkhjuq $&<1122&       $&<if -.hMktyur8666wtkNvjq S",
"SmhhffCNbskzxzkjhjyq $&<122<        $<<ph -.izr19ZCzuuu44yzvxy<v",
"SSSVbisabdiipfkzfyqq $&<241        X$&2ij -.&<wfsmVCuhhhSg6yxvf ",
"SSvuuuulbsujljbVyqwq &&<241        $%&qwu -.quuusxifuSSSSSSu4Vx ",
"SvupzzzfbsuhkMAVywfu $&<2&         $$&qqq -.ulfusvjuuuuVSSSSv4Z ",
"huuuskfbuuhkhnvyqqfb $&<2&          6iiaqi *.udusxhzzluuVSSSSv  ",
"SSSVisuuqqfpabvyrfk   $&<21        6jbcpqq *.ukfudxfzuuuuvSSSSS ",
"SSSVuiuVywuianvyyk1&<<oXo&<      #X0cnmhaq *.qfawrsihuVVVSSSSSSx",
"SSnfijBAuwwpsbxw01<111<&%oo# &<<&o qmNMkkq *.qitwsbuiiSSSSSSSSSS",
"SSvikCAhssusvZzq8 <<<11>&&$o$<2<$  8dgkjzq *.wuwwhZVsuhSSSSSSSSS",
"SSvizZvuffisbVs01o<<<11>&<&#o<<1o  >0yuppw2@+5qyufmAbaiNSSSSSSSS",
"SSvufzujchidbvr8 o$<11<&&<1<ooo&&$X &26rqq2o*.>efssvAfuVSSSSSSSS",
"SSvuuafnCkisbvy9 X##21&&&&<1&X o<<oXoo&8882o*.&8ujauBsuVSSSSSSSS",
"SSvifzVzAbasbxr8o&X#<<&&&#o&1&o&<<o$11&XX b0= qq4NcgpuuVSSSSSSSS",
"SSvsbnbyVZhaxz6X&&%1%$21%%$o&><o$<o$&&&<% Cj7o7qqmvVjsuBSSSSSSSS",
"SSvsnbiqiBhuuu6X&<%<%XS2o&&$  <<o&o$&&<<& c2a2 rNxfVbbuBSSSSSSSS",
"SvakvqqqqNAhuvuX&<<&&XSS1          $&&&%& u&   enywuVbuVSSSSSSSS",
"SvuuiifiqzZzpvy X&%&%XSS&#&%&<1<<o$&&%&%%    *+rvqqwqVfiVSSSSSSS",
"SvuuiifuuuVhuvu<q   &oSo#<1<<&%&&X o&&&$& SS6*+rbwifiuuuVSSSSSSS",
"SvzbsxfusivdzSu&uacaX 1<XXXooXX X   o&&$XxSSi>+,8yifuuuuVSSSSSSS",
"SSSVpkfufisivSu&pvAxp< o#$<<&$ &<&X0qXo$ SSSS4++<aifbuBfVSSSSSSS",
"SSSVphzufjizVSu<sxAqv1Xo&<11<oo<11ouxuqX SSSS6++1sifcuSmSSSSSSSS",
"SSSVsbbhfcsVSSu&igV q%#&<1<>oo1>>1ouSSVuySSSS6++1sazfiSSSSSSSSSS",
"SSSVhZMMfkpVSSve66h0  #&<<&%o#11&<#6cSSSSSSSS6++1hzbbuSSSSSSSSSS",
"SSSVdVCmsfiVSSSm660s  $&<&%$$o<2<&&ouSSSSSSSm3+;5lBMAuSSSSSSSSSS",
"SSSSfhAzisiNSSSSSS66 #&<<&$$ <&211&ouSSSSSSS6*+8dhNAVuSSSSSSSSSS",
"SSSSVfVAzpibSSSSSSSS #&11oo$ <o&11<$uSSSSSSS6*+8asbAuhSSSSSSSSSS",
"SSSSVuuAAhuuvSSSSSSS $<11<&$ <1<2&<$uSSSSSSS6*+6izAAuSSSSSSSSSSS",
"SSSSSVuuffiuvSSSSSS %<22<%&&&<<&1o&<o6SSSSSS6*+6hAVuuSSSSSSSSSSS",
"SSSSSSSuisfivSSSSSS %<%>&&&<&<%  $<<o6SSSSSS5*+8fsuuSSSSSSSSSSSS",
"SSSSSSSVusfivSSSSSS &&o#&&<<<<<$$<&&o4SSSSSS5*+8difVSSSSSSSSSSSS",
"SSSSSSSSuljivSSSSSS &>%oX$<<1<1&&&&&$6SSSSSr,O5isfSSSSSSSSSSSSSS",
"SSSSSSSSVjiivSSSSS6$%&&%$&<1<<&%%o&<&>rSSSS6*.9kkhSSSSSSSSSSSSSS",
"SSSSSSSSSmsuhVSSSS &&$&&&&>&<<&%&X&<<$6SSSS6*.6fkmSSSSSSSSSSSSSS",
"SSSSSSSSSShuuvSSSS %<$$#o$%&&%><$$<1<$6SSSS6*.6hmSSSSSSSSSSSSSSS",
"SSSSSSSSSSmsuvSSNuo&&<%$###&%&<$$<<<&$1fSSS6*.6vSSSSSSSSSSSSSSSS",
"SSSSSSSSSSSxsvSSx &%&<<<>#X%&&1o<<<&&&$4SSS6*.9mSSSSSSSSSSSSSSSS",
"SSSSSSSSSSSSvvSSaX&%$&<<<%o&<<<<<&&&&%$2xSS6*.ySSSSSSSSSSSSSSSSS",
"SSSSSSSSSSSSvvSxX%$&&&&$%&%%&$%&&$&$&&&$ SS6*.uSSSSSSSSSSSSSSSSS",
"SSSSSSSSSSSSSSSv                         SSS6vSSSSSSSSSSSSSSSSSS"
};
