/* XPM */
static char *result[] = {
/* columns rows colors chars-per-pixel */
"64 64 91 1 ",
"  c #000000",
". c #0C0C0C",
"X c #141414",
"o c #1B1316",
"O c #1B1B1B",
"+ c #21161A",
"@ c #241C1F",
"# c #261F22",
"$ c #2B1E22",
"% c #252223",
"& c #2A2326",
"* c #2C2629",
"= c #2E2B2C",
"- c #302327",
"; c #322629",
": c #332A2D",
"> c #392B2F",
", c #352E31",
"< c #3A2D32",
"1 c #343334",
"2 c #3A3235",
"3 c #373438",
"4 c #3D3639",
"5 c #3D3A3B",
"6 c #412F33",
"7 c #413336",
"8 c #42353A",
"9 c #48363C",
"0 c #433A3D",
"q c #493A3D",
"w c #52393E",
"e c #453E41",
"r c #4A3E41",
"t c #513F45",
"y c #464344",
"u c #4A4345",
"i c #4D4649",
"p c #4E494A",
"a c #504446",
"s c #584146",
"d c #524649",
"f c #5C4149",
"g c #524B4D",
"h c #5A4B4E",
"j c #554E51",
"k c #5A4F51",
"l c #565152",
"z c #5A5355",
"x c #5D5857",
"c c #5D5659",
"v c #5E595A",
"b c #694D53",
"n c #615456",
"m c #615759",
"M c #625B5D",
"N c #695B5C",
"B c #725B5E",
"V c #64605F",
"C c #655E60",
"Z c #6A5E61",
"A c #725C61",
"S c #666162",
"D c #6B6465",
"F c #6D6867",
"G c #6D6669",
"H c #6E696A",
"J c #716566",
"K c #7B6165",
"L c #706668",
"P c #726C6D",
"I c #796A6B",
"U c #766F71",
"Y c #796F71",
"T c #767172",
"R c #7A7475",
"E c #7C7778",
"W c #7E7A7A",
"Q c #807577",
"! c #837779",
"~ c #827C7D",
"^ c #84807F",
"/ c #847E80",
"( c #887E81",
") c #858282",
"_ c #8A8585",
"` c #8C8887",
"' c #8C8788",
"] c #8D8A8A",
"[ c #928C8C",
"{ c #949291",
"} c #989393",
/* pixels */
"du7r88r5eeeer5e33<:0440u5e8ez                                   ",
"2:;>$-;#**,,,#****%**%**=:,,g                                   ",
"e0&-<<e4845e8344e55e03333443u                                   ",
"SPhzCcCCDMCCCzckCCSGSzhzNcggy                                   ",
"DHHUHCCGPGDPCukCZCCGUdmUPJddh                                   ",
"CvcccgCCNJNCgrkZCejCCemQIZhkz                                   ",
"ZjjijjZPGLGZNDLICrzcgcZURJLIx                                   ",
"ZgijjmL()/~W~(~EYGZCAR!/(Q!!Z                                   ",
"ciutrzekvSUGGEETYUCmZLHUMcDDG                                   ",
"Ne000t;:8ylipvCHDGeurjcC0rMMF                                   ",
"cj2reth*5ejgjzcPHDjiijlMeiczH                                   ",
"eGezeeg3:,ipjzcHDDceiilzeilzT                                   ",
"rcCitgej#:ppgjcHGSzyuijluuzzT                                   ",
"beYgddiG5*piijcPSMleuyplirzcW                                   ",
"u4ccjdjcc$piijcHGxlyyigluujcE                                   ",
"deuCkkjgH8pitzlGGMluyypziijmE                                   ",
"r0eGcjjiSMpyizjDDCzypplzpglME                                   ",
"ieezZgdjlSgyrjcNCzxygpvMppVME                                   ",
"iuurGmrClSS0rfzMzzMigpxSilvvT                                   ",
"uuuuMGuCzj)5rtunmjzpllvvplxvP                                   ",
"eeuuuSccxy)z9brkmpcugvzCjlvlP                                   ",
"eeeeepPjvzxR<thczicglvVDlzDVH                                   ",
"e00y00TzzHdEe;umMcDkjZSGxSDSR                                   ",
"u80py5CSpHMGP+9zSmPzzZCGvSvDT                                   ",
"ut4kxiyTgzxv_:8zGZMmpgmDMVSDT                                   ",
"gZ4zGiyHMlvxRP<kDZNzziNFlVDMT                                   ",
"gkizGiigTlzzv{8umNNxSpSTVSVVT                                   ",
"i5yizig5FvzgpRN4kMSvvjHTSGvFT                                   ",
"geyilgvelPxxpv]0dnNvClTTSDvHR                                   ",
"ueypzlvegTvvSV]v<kmmDzWTSFSHR                                   ",
"yepizlxgyxSxvxFW>hxMDv)RGGGHR                                   ",
"u5jjlxMCllFvyvlWaqzMSS)EGTHHE                                   ",
"a1gypglFvzUv5VvPP7nhvV^EGHHPW                                   ",
"g1gyyyyvTzTSGFTH^tdzMv)WTDGHW                                   ",
"lygppy5pTF)vGTTR~~2xvv)^TSDSW                                   ",
"lygpgy5pSE`iSHFEE]0pvx^^RHHDW                                   ",
"pylllpylzR)eVFHHRPM0zxUWEHGHW                                   ",
"pupmgppvSR]ypWPRDV~ahnP~RHHF~                                   ",
"pupVgplFWWWpyFSTFP^S>zSWRTSvW                                   ",
"prpVlpxTWW)gplPFP~~_$8z^PTpv~                                   ",
"p0uVlpuFRv_lgpTFF)W]h>z^PPnFE                                   ",
"r0rVlg0gGD/pppFTP~~_W*v^LKNLE                .                  ",
"e44lplppMS~pjplT){_~_4gWGAcGR           .%1555555=XX            ",
"02eKpgxxlyDpvplS~]_E_G4RGjjCR          =yyyy11=15pypy           ",
"nymIMpvMxpPzSZvzEW~WW[0nPyzCT          ey5%. O%X.X15p1          ",
"gpmlVpppvP_GALClS~~_~_NqUiccU          11 .15ypy1=..5yX         ",
"uugjVg55lH]NMNMcm/(__WWuMgczH         *5 Xy5pypyyy5O.51         ",
"dulzVp02uz]plMvSCP[_~T~mpizxP         %O X%XyOy155.1 Xp=        ",
"pehzMjg44iWyjMvCCi]'/~RP2ejkH         O  &   .35 O..5 15        ",
"pegVxlGj4eSipCzMCeW'_/RUr4gjH            O .  %O .5 O  =.       ",
"p0zNclYCe4lyucvvcrH)_W'UL>ujD                 O  .XX   1        ",
"lezVcjPc5:SyicCczuzU'['/Ee8hM                 . 1p5%            ",
"lemmMpzz5j]yhmCcjrcc]}[(US*hc             X&   Xy1X%            ",
"lezzCyekzP}pgfCmj8ci/[{EG)<rx              X   XOO11            ",
"l0ijl53uZ~{pddmCiemgC({YITc-z                  .OX.             ",
"p3ii54<8jW]gdtjztejgkU([!NP;g                                   ",
"9,u0,,<<rP)iiqdleeirrcR][Pxdu                                   ",
"w%830:::0zU50:0y0:e<::R([)lG4                                   ",
"6@:,5#&*:4y*:$&**#$##ozZZZpC>                                   ",
"gie0235e5<***#%&*::<:#*,<3:42                                   ",
"DNjjigjlhe44:=*<2<28<*$*29;#0                                   ",
"Djeeplggpaue052eee88<2e3rt8<u                                   ",
"Piiippyyuiuiueeueiuy5egrrreuh                                   ",
"YMvvlgppjjljpijlzlczzmNGdnkmM                                   "
};
