/* XPM */
static char *result[] = {
/* columns rows colors chars-per-pixel */
"64 64 112 2 ",
"   c #1D1418",
".  c #1F181B",
"X  c #201718",
"o  c #221C1E",
"O  c #241E21",
"+  c #2A1E22",
"@  c #262023",
"#  c #2B2225",
"$  c #2D2629",
"%  c #2E282A",
"&  c #312326",
"*  c #32262A",
"=  c #322B2D",
"-  c #392B2F",
";  c #352E31",
":  c #3B2D32",
">  c #363133",
",  c #3B3336",
"<  c #393837",
"1  c #3D3639",
"2  c #3E393B",
"3  c #403236",
"4  c #42353A",
"5  c #4A363C",
"6  c #433B3D",
"7  c #4A3A3E",
"8  c #453E41",
"9  c #4A3E42",
"0  c #523D43",
"q  c #5A3C41",
"w  c #464142",
"e  c #4A4345",
"r  c #4D4847",
"t  c #4D4649",
"y  c #4E494A",
"u  c #524446",
"i  c #584D47",
"p  c #524649",
"a  c #5B454A",
"s  c #524B4D",
"d  c #5A4B4E",
"f  c #51504E",
"g  c #4F4A50",
"h  c #554E51",
"j  c #5A4E51",
"k  c #565152",
"l  c #5A5355",
"z  c #5C5857",
"x  c #5D5659",
"c  c #5D5959",
"v  c #62454E",
"b  c #604849",
"n  c #61524C",
"m  c #634F52",
"M  c #6A4F57",
"N  c #625355",
"B  c #6A5455",
"V  c #655B57",
"C  c #615659",
"Z  c #6A5558",
"A  c #625B5D",
"S  c #6A5D5D",
"D  c #71565A",
"F  c #6B625F",
"G  c #665E61",
"H  c #6A5E61",
"J  c #715C60",
"K  c #795F63",
"L  c #676162",
"P  c #6A6365",
"I  c #6B6867",
"U  c #6D6668",
"Y  c #6E6969",
"T  c #716566",
"R  c #726769",
"E  c #7D6569",
"W  c #726C6D",
"Q  c #7A6D6E",
"!  c #74706F",
"~  c #756E71",
"^  c #796E71",
"/  c #767172",
"(  c #7A7475",
")  c #7D7877",
"_  c #7C7778",
"`  c #7E7A7A",
"'  c #83666A",
"]  c #88676B",
"[  c #866C70",
"{  c #827576",
"}  c #827678",
"|  c #827C7D",
" . c #8E7A7E",
".. c #7E807F",
"X. c #82807E",
"o. c #847E81",
"O. c #887F81",
"+. c #858282",
"@. c #8A8485",
"#. c #898886",
"$. c #8C8788",
"%. c #878988",
"&. c #8D8A8A",
"*. c #928081",
"=. c #908788",
"-. c #928D8D",
";. c #92918F",
":. c #958E91",
">. c #988E90",
",. c #959292",
"<. c #9B9697",
"1. c #A29D9D",
/* pixels */
"U P L P H H T T S p a } _ ^ ^ ~ ~ ^ W Y Y Y W U G A A G G G x x l l h z x x l c c A c c c c k k k y y k z z c L c L F Q { [ Y k ",
"s C j h p 9 9 h p 0 p j d d p g e 6 8 2 w t t h e t e y t t 9 e 8 8 2 8 w t t y r y r r e e w w e r e y s g k l k l h s C ( Q d ",
"p p u 8 8 9 4 8 9 e 6 8 9 8 p t w 8 6 6 e 9 8 9 t 9 w 8 8 e 8 8 8 w 8 g t e t w e d e t r y y t r g g f h t 8 w 8 e e y U Q C e ",
"e 9 : + $ , ; 4 M M 4 , ; + ; > % * * : : : : : - , 1 8 4 , = = ; > ; ; , 2 6 8 e 9 e s s p h l h s k y h t y t t e g l A G z e ",
"1 1 : $ # O $ ; ; = % = $ $ O O * > , 4 4 6 1 1 , > ; > ; % = $ @ @ % % ; ; ; ; > > 2 e t t h g y t w 8 8 8 t g h k C L G P x 2 ",
"; * s x e 8 8 p h t g 0 t 9 6 $ O O @ @ # O O O + O # O O O O O O O @ $ $ # @ ; ; % = % ; * $ % % @ O $ > ; ; = ; = % % * : 8 > ",
"1 @ e ( U s x ^ $.O.o._ o.^ ~ 9 X   + $ * $ * 1 = + > 1 1 , 1 , ; * * 1 2 > ; G l y e 6 1 * * ; = @ # , e e 2 ; 6 : + o : q b 2 ",
"p , & s R k h U O.>.=.O.$.~ W W e : 4 9 8 6 8 j 0 > 6 t g g g e 9 4 1 w y w 8 _ P U P j 4 : : 4 , ; ; = > % ; 8 s 6 = * # 7 Z 6 ",
"l e - & u ( C x R $.+.:.,.&._ ^ W h e j h 8 p j p : 6 p h h h p 0 0 0 9 h t y %.( _ / A 9 4 6 4 ; , 2 % 1 , 8 j h 8 ; , : 8 z 2 ",
"c s 7 * & l | P G ~ [ [ o.@.:.@._ ( G h l y l l p 1 6 g l A x h j d 9 p y w f &...X.` / C 9 9 6 > 2 8 ; g h t x l 6 , 2 8 h I 6 ",
"F k d e * & x =.~ U U P ^ $.:.:.$.o._ G t y G l p , g j C G G G C d p d h w z %.#.` / I C Z h 2 2 w r < P L h U G e 8 8 8 k Y w ",
"L k x x 6 # = V @.( Y ( :.$.-.,.:.@.O._ l 8 l G h 8 x h l A G G G N a p y w y %.+.Y x y 8 h x g t h s 2 U L j T P j 8 8 8 l L 2 ",
"L z z l 7 , , , A | / ~ O.,.O.:.<.O.o.$.( z t G l 8 c l l c G c N C j d t 8 t ` y 2 , ; 2 t l P U L l 6 L L c R W t 2 8 8 f L 2 ",
"I c G l e 9 e 4 * l | W ~ O.:.O.} -.&...O.` L h c 8 G x j x G x l x j 9 w 8 e A 2 2 2 2 w h G W ~ ~ z 6 z L c ^ ^ t 8 w 8 y A 2 ",
"~ L c c p e s 7 * * G ( Y ~ ` @.| o.@.#.$.+.o.L h 8 G G x A A z x A C g t t w G f 6 w 6 , w G P Y Y z 6 L G G ^ H 9 8 8 6 y c < ",
"~ U L G u e l u > > 6 P _ Y ( _ o.o.o.$.$.&.$.` G 2 G G A G A c l C A g t t w / L t e 2 ; , 8 t l L k w L A z l h t r 6 2 g c < ",
"~ Y Y G h y c h , 6 e 7 W | ` ` W _ | | $.#.-.=.| z A L P H A c c A A h t e e +./ c y t 8 , , 1 8 h h w L A z k z s t 6 6 f c ; ",
"/ Y I A k h c l 6 h C p 6 ^ o.| _ ` @.#.+.$.@.` $./ L x H c x c A A c z S H k $._ / L y h w , , 2 h k w I I z y k s e w 6 e k < ",
"/ W Y c l x c h 6 z W s 7 4 ^ +.| ` | @.&.o.@./ | ` / l h l z G T T G m ] } k %.+./ / G z g w 6 e k k w F F l r e C p t t t y 2 ",
"_ W Y c x c x p 6 k _ V j 4 5 _ -.@._ _ +./ ( :._ | ` _ x h x c U R G c P P y Y / y y l G c z k x c k 2 c ! Y W C C u e h C A 2 ",
"_ ~ Y L x g h l e p ! Y R A - > _ ;.X.X.` ( | $.,.| ` +.( z k z l l s A c k r I k w e r k c c k z F k 6 k f E ' r 6 2 , > 5 m 4 ",
"_ / / Y G l x R B d ! ! _ ( e & 6 ` ,.+.+.o.&.=.+.<.X.| _ / A y h s w l l y e / ~ c A L z k s r y c c w z y C y > 1 < 6 > 1 c e ",
"..~ I U W G J [ D N ! / | | f 4 & 5 | ;.X.X.o.@._ &.&.L L ( _ c y f e s k f e _ / A Y W G x y < 2 k l e z y A c e 6 1 6 6 6 f < ",
".._ ~ W A j J K ) T W ) | ( k < - + 8 +.;._ X._ #.` L / L Y ` / c e r r k k g ..` A c ! / / Y k w y k 2 k k L Y f 6 1 6 9 9 f 2 ",
"o.| ~ G l e k / _ L / ` X.R s 4 6 3 & 9 &.&.` ` _ +.P Y / G L / / k w y k k y ) ...._ ..) ! / W k k k w z z F L r w 8 w t e g r ",
".._ P z l z L ( / Y _ ` | Y F j l d 3 & j $.&.~ L _ W A ! ( L L _ W y w y y r / ` +._ _ ) ! I L z k f 8 z y c Y s w 2 t s t y s ",
"o...( Y L I Y W / Y ` ` ) ) ! z N x a u 9 j -.O.x Y Y Y F ( _ Y P _ ! r w r r %.+.@./ U L L A k y k k 6 z y c I k e 6 t k y y n ",
"_ ../ W Y U Y W W P | ` ....! A c h p A p $ 9 :.X.G _ ` Y W Y Y Y P / Y w w w ) ` +.~ A k z k e e y k 8 z k k c k y 8 e r p l s ",
"_ o.W G U Y U Y / P _ ` +.X...Y c h l L l : * j ,.) ! ` X.( ! L ! / F Y I w w ...._ _ / c k y w 2 w h w c y e c f r 6 w h y h y ",
"| o.~ A L Y I I Y L _ ) X.+.....z t h P G 9 9 - A &._ | _ / _ W Y / Y L Y Y e ` $.Y c ` ! k r w < 2 r 6 x w e F k r w e k s r s ",
"` _ _ ~ I U L U Y L ( _ ` +...) z y x S l u C 5 7 j ` +._ Y W / Y L W Q A I L I ` c k Y / Y c s w w f 2 s < < F k w > < e s C C ",
".._ ( ~ Y Y W / W c Y ! ` +.` ..A y x P x 9 C d a = r @.) Y A c G L s : e z z / L k z A c P Y L f k z e k 8 2 c z e = ; w p G Q ",
"` _ _ W Y Y ~ / ( C W / ( ....( L h x ~ P e l C j : & p @.` G h z c k w r c c Y Y y f l y z U G c G x y L w y z k y 2 2 r e y L ",
"/ _ / ~ I U Y Y ( c Y / _ ` %._ c j c ~ P h l C J 9 3 & z &.` P A k k I z y L L W I k y w e h k x G k e Y e r z y r 8 2 w e r A ",
"/ / / W L G I I / z Y P / _ ..Y x k G W G h x A Z p 5 5 = G :.o.Y L c A I F c c G ! / c e w 6 e c L k e I r k g w 8 2 w y y y P ",
"/ / ~ Y L z c Y ! x I Y / ! ~ L k s c P G h A P G j p p 0 : G ,...c c f 2 k L k c c / L y e 8 e x G k w I w y r w 8 2 8 s s y F ",
"/ / Y U P F z Y / z L / _ ~ P G s r z U L f c T R j l l p 8 - Z ,.+.c l y y k z k y F ( L r 6 6 y k y 8 I f y l e 8 6 6 t s y T ",
"/ _ L c L L c L Y x L Y / R G z y r z Y A s c T R x N S g 0 3 * x ,.+.x z c k k L w k L _ Y e 2 e g r r _ L c k y e d m s s s S ",
"_ / L A L U L L Y k k L H U A d r e y A V y s ^ Q C P W C j p : # l ;...A c z c k A k k c ` I w w y e e ( L A h 6 < j E N 6 r V ",
"/ / I L I L c F Y c A A G R x d j p 6 x T s 6 }  .s F ! C j p 9 + + l &.+.c c A k z c k y c _ Y r y y 2 L l l g 8 , 1 p p w k T ",
"/ / Y L L A c A Y z c c Y / G C E V y z c y G O.Q s k ~ C l s 4 : + + j &._ g k L / U k s s A _ Y r e > 8 8 t t 8 2 , 6 9 e p S ",
"/ _ ~ L G I L L L k c c U ( P l P C y x l y G R P s y P G l j 9 5 5 + * A &.L l r L / L k s k P / I w # 8 g 8 t e 2 8 8 4 9 p V ",
"/ Y c z L Y c z l y k c U U x c A h h k y e x A h w p C C j x j 0 v 0 $ 8 c %./ r w k L z l l c L ( L $ w g w t 8 8 8 8 6 e h T ",
"/ Y z h c c l l z y k l G G l h l h y s e e l z z e h G A p e 9 : a D : 2 , L &.Y w e k c G C h k L / l w h 8 t w e w 8 8 e s A ",
"/ / P c A z k k z y y z L F k k k k y k r e c z A g h c H l g 0 9 5 a 9 8 8 , W ..L y y x F S s e l G W U h t t e e t w 6 e l e ",
"_ / P x l G A k s y r G L c k k y y y y e e c c G g h A G G C x Z d 9 9 9 e 1 t ~ / A s k c F s 9 y l c W P g 9 t w w e e p j N ",
"` ( L c L L z f y y y c G z z k y y r r w w x c A l x G J G j x A j p e 9 t 2 h 8 A Y c k y s d s p t h x R G e e 8 6 6 e e d V ",
"| ) L x A k g f y g y k z y g r r r r r r e k c G G G U W Y G g l l t e p h 2 h 6 ; A _ L p f l j h s h h A ~ c 8 8 6 2 7 e d l ",
"| _ L c l t h g t g w l l g y r w e t e w e y G c L c Y W U G h l h t w y y 6 h 9 = = A R j g j j h h j j l x ~ z 6 8 8 8 p N j ",
"| _ Y c l l h 9 9 e t h k g y y t w w w w w y L c G G Y W W G x l h h t y y 6 s e , @ * C U g t h p u s p p p N _ x 2 2 8 e C G ",
"X._ P c l l h t 9 t t h k y y y e e e e 8 8 y G G c c P R W G x l g h t y y t k 8 1 % . , U G 8 e p p e p p p s G _ c 2 e B G x ",
"( ! L x l h h t w t e l z h l y t e e e w 8 t U Y A G Y W R G l j h l h h y y h w , $ # O = g l 9 e s p 6 p p p e Z ( l , 0 j u ",
"/ ! L x k z h p t t 8 l z l l g p s t e e 9 g U Y G G U ~ R G G x l l g y y y s w < , , ; # $ 9 x e 9 e 4 9 j e 6 1 z / j 4 l G ",
"Y W L z l C x p 8 9 8 x G c j h h h t t g t 8 l G Y H Y ~ W G x x c l t s k y x y e 8 8 8 2 = $ 7 j e 9 w 4 6 e e 4 > p ~ C 8 G ",
"P P Y A G P x e 8 g 9 G U H A l j h p p t t 8 p G R G H U Y U G G P c g x s t x k y t 8 8 8 1 + & 5 h 9 6 < 2 8 9 6 4 7 j T x x ",
"L P Q Q T R ~ R U R ~ ^ _ _ ^ ~ ( } ^ R G G U ~ ~ ^ _ _ _ _ o.o.` o.` ( ` _ / ` ` ` / Y ~ R G C j x G h t y s t e p d s d S T Q ",
"s F { } } } | _ } o.O.} } } { / ~ P c l l N A G C C U R ^ ^ _ ( ( _ _ ( ( R _ ) ^ _ o.o.o.o.o.o.~ G G l j h y t p y t t c W ^ O.",
"e S Q S A C j j H } T P P R x h g 8 t x c G k h 2 e A p G T H G h j l p l N C V H G G x l G A A G j p e h h s k h l l c G H ^ >.",
"e S R u 9 p p J Q ^ [ } { } C 6 8 l ~ _ P A z l h z P S Q G C j 4 5 e y G W P T R R ~ R R R Y P G x l h G G P L G c G G H U J | ",
"6 l C s e 0 j G H H P P G z j l k G I P P P L P P A P P C j l x l s x G H P R G A x G U U G U P G G G P Y ^ Q R Y ~ ~ ~ ~ R G } ",
"8 e t e t t t g g h h h h t t e t l x x A c x l l l c A h g h l h g h x l l l l l h l x C l z c l h 9 e d u 4 , > 4 k L G c l P ",
"s 8 > % $ % $ $ % % # # O O $ # @ @ % % % $ O $ # # # # $ $ + # O + O # % ; % % % # O O # O O o $ - + o & o # & # @ # # # ; 1 d ",
"l j t 2 2 8 1 , 8 2 1 2 2 , , ; ; , > > < < % ; ; , ; 1 ; > ; 1 2 > 1 2 8 8 1 8 8 2 , , 6 1 > = 3 u 4 * - 3 5 : , 3 6 7 9 p s S ",
"x x h e 8 8 2 8 8 8 2 e h y t 2 8 w 8 w w > % % % , ; 1 > 2 8 8 8 8 8 8 9 t 8 8 t t e w e e 6 4 7 d 6 > 5 7 e 5 7 6 e p e d l ^ "
};
