/* XPM */
static char *result[] = {
/* columns rows colors chars-per-pixel */
"64 64 16 1 ",
"  c #4848EA",
". c #4A4AEB",
"X c #4B4BEC",
"o c #4B4BED",
"O c #4C4CED",
"+ c #4D4DED",
"@ c #4D4DEE",
"# c #4E4EEE",
"$ c #4E4EEF",
"% c #4F4FEF",
"& c #5050EF",
"* c #5050F0",
"= c #5151F0",
"- c #5555F3",
"; c #5656F4",
": c #5757F5",
/* pixels */
"                                                                ",
"                                                                ",
"                                                                ",
"                                                                ",
"                                                                ",
"                                                                ",
"      :::::::::::::::::::::::::::::::::::::::::::::::::::       ",
"      :::::::::::::::::::::::::::::::::::::::::::::::::::       ",
"      :::::::::::::::::::::::::::::::::::::::::::::::::::       ",
"      :::::::::::::::::::::::::::::::::::::::::::::::::::       ",
"      :::::::::::::::::::::::::::::::::::::::::::::::::::       ",
"      :::::::::::;;;;;;;;;;;;;;;;;;;;;;;;;;;;;;;;;;;:::::       ",
"      :::::::::::::*                               ;:::::       ",
"      ::::::::::::::*                              ;:::::       ",
"      :::::::::::::::*                             ;:::::       ",
"      ::::::::::::::::*                            ;:::::       ",
"      :::::::::::::::::*                           ;:::::       ",
"      :::::;::::::::::::*                          ;:::::       ",
"      :::::;:::::::::::::*                         ;:::::       ",
"      :::::;;:::::::::::::%                        ;:::::       ",
"      :::::;+::::::::::::::%                       ;:::::       ",
"      :::::; O::::::::::::::%                      ;:::::       ",
"      :::::; .O::::::::::::::%                     ;:::::       ",
"      :::::;   X::::::::::::::%                    ;:::::       ",
"      :::::;    #::::::::::::::%                   ;:::::       ",
"      :::::;    .+::::::::::::::%                  ;:::::       ",
"      :::::;      X::::::::::::::%                 ;:::::       ",
"      :::::;       X::::::::::::::$                ;:::::       ",
"      :::::;        o::::::::::::::$               ;:::::       ",
"      :::::;         O::::::::::::::$              ;:::::       ",
"      :::::;          O::::::::::::::#             ;:::::       ",
"      :::::;           O::::::::::::::#            ;:::::       ",
"      :::::;            O::::::::::::::%           ;:::::       ",
"      :::::;             O::::::::::::::%          ;:::::       ",
"      :::::;              +::::::::::::::%         ;:::::       ",
"      :::::;               @::::::::::::::%        ;:::::       ",
"      :::::;                @::::::::::::::%       ;:::::       ",
"      :::::;                 @::::::::::::::%      ;:::::       ",
"      :::::;                  @::::::::::::::#     ;:::::       ",
"      :::::;                   #::::::::::::::#    ;:::::       ",
"      :::::;                    #::::::::::::::#   ;:::::       ",
"      :::::;                     #::::::::::::::#  ;:::::       ",
"      :::::;                      $::::::::::::::# ;:::::       ",
"      :::::;                       &::::::::::::::#;:::::       ",
"      :::::;                        -::::::::::::::;:::::       ",
"      :::::;                         *:::::::::::::::::::       ",
"      :::::;                          *::::::::::::::::::       ",
"      :::::;                           =:::::::::::::::::       ",
"      :::::;                            *::::::::::::::::       ",
"      :::::;                             *:::::::::::::::       ",
"      :::::;                              *::::::::::::::       ",
"      :::::;;;;;;;;;;;;;;;;;;;;;;;;;;;;;;;;;:::::::::::::       ",
"      :::::::::::::::::::::::::::::::::::::::::::::::::::       ",
"      :::::::::::::::::::::::::::::::::::::::::::::::::::       ",
"      :::::::::::::::::::::::::::::::::::::::::::::::::::       ",
"      :::::::::::::::::::::::::::::::::::::::::::::::::::       ",
"      :::::::::::::::::::::::::::::::::::::::::::::::::::       ",
"                                                                ",
"                                                                ",
"                                                                ",
"                                                                ",
"                                                                ",
"                                                                ",
"                                                                "
};
