/* XPM */
static char *result[] = {
/* columns rows colors chars-per-pixel */
"64 64 54 1 ",
"  c #161413",
". c #181614",
"X c #1C1A16",
"o c #1E1D19",
"O c #211C17",
"+ c #231E1A",
"@ c #272017",
"# c #25221C",
"$ c #2B251E",
"% c #2E281F",
"& c #30271F",
"* c #31291F",
"= c #221F20",
"- c #262420",
"; c #2B2622",
": c #2E2923",
"> c #302722",
", c #332C24",
"< c #382F26",
"1 c #352D29",
"2 c #382F2A",
"3 c #363026",
"4 c #393127",
"5 c #36312A",
"6 c #3C332B",
"7 c #3F382E",
"8 c #3D3531",
"9 c #3F3931",
"0 c #40362D",
"q c #42392E",
"w c #483C2F",
"e c #413631",
"r c #443B32",
"t c #493E34",
"y c #473E38",
"u c #493F38",
"i c #464035",
"p c #4B4235",
"a c #4D4439",
"s c #504637",
"d c #51463A",
"f c #544A3D",
"g c #584D3F",
"h c #564C41",
"j c #594E41",
"k c #575141",
"l c #5C5244",
"z c #5E5548",
"x c #605546",
"c c #625649",
"v c #64594B",
"b c #695D4F",
"n c #6A5F51",
"m c #6B6052",
/* pixels */
">2027O>7,qija65*5r:,75331,,>7wp1*slxkgq0,O;>#41@X@q255+>50*6*,4q",
">2>20+>7>4rfa65@,i$,6,%3,*:$,ws4*pfgjgq4,o#,%45@X$7152+@,0%0%%,0",
">1:>0+:q,:6fa75::i$33::34%%%:qs4%qrrggq0,O@,$34##$7>56-#,0%4#1:r",
"*5,2q@,q3$6hai5::r;,3:565%$:$wp*%666ss00>O@,%,6$#@6265--,q@4#:1t",
">6<0t+<q>:5hsi7#,r%,33r66>$@@0w3%7qwfaq0>+$<&,2$X$6266-;<0%4;*5p",
",6trt$60326hsiq,4i;:,5r90&$%%qp4%wfgfpqq,+>,>>4;O%62e6::46*6:65p",
"40stp$06356ddpr57p-:1197<*&*>qi*%illfpw7,$&<&,4%+&4267::44>7>w7t",
"0wpps%r635rapur67p-::1664,&,,wp*%axxfpq4>+&,&,<&+&42er::44>7>r5p",
"4ppfd>p0,56iaue57t$;;1764,*,*pp3%sxxhpr4:$;>*,<$O%4<er::64>7,q6p",
"6wpjf>ae15ripue6qp#;#1764>*,*pd3%pccgar3:$%,*<<%O%,<0y=:41>6,w9t",
"6ppkd%p0:19iar02qr##:157<&**4sd,*pcckpq1;$>1*41%O;<10y-;75%5,q9t",
"4wplt%s4%16rut6<6w#%#1551%*44ps*%plvlpq2:%>,,4,%O><20u-:23$<5rer",
"4pagr%p4::8euu6269###:374>,,4pa,>alvcue3:%>,>53*O;,4et#:55@65qrq",
"4ppkw:p6;189tu526q#%-;554,*,3pp,,pjvcsq5>;>>>3,*+>1<5r+:6,@45rrq",
"4ppjw;t6::5ytt6277##=-537<,*4rp*,thccde5,:1>&*,>@:,19r=:5:$,5r9q",
"4ttlw;t5::2rtt017q###=,454*33wp,,tgcbf02,:1;%*,1$*,,e9-;2:;<5teq",
"00wlp%p41-89yyr:rr++#=:566,,4ww34pgvbfq52>>%$*,1$:2,9r--2->65t0r",
"04pgd@d41;8yaye:7r#o+-:5661*4wq34pgcnhq7,,1;$,<2$:5,97--1#>66ter",
"04spj#s5:;8aaee,6r##o=:154<*4wq47pfxnjq5,11%$>,4::51i9-#,+:76ret",
"w4ptj@ar1-5iurr26r###=-:664,4q744pfcnj051>4%$*,<::5,97##1o;606et",
"w<4wg%tw:#2yiqr:59##-o=:<7<,*q744psgnh74:;>;$*><;>51y6o#>o%66,6i",
"q:$7f>pr-o2rt77$37#=-#o-<74>$,4,4psslh61:#$$$,,1#:5>r6#=1.#6,-2p",
"q:17a%pr:-2tre4:,6#-:---<74*%54,4tiqfa61;::#$,><1-1:rr:#1.;5>8,u",
"r,*ps,pq#X1rrr6#16#--#--40<&@,4,3pwqgp75:#@$$>51o-::r9oo1.;50-1t",
"e56df,r9;#5r9e0;15==##%:773%*4,>4psglp73,:>%+,35;=1:r6=-:.;1y12r",
"y69gf1rq>-599er>12++o:,,75,,404*4sgxli73,22%+,1r:--:e9>-:.=1ur2e",
"y66kf3w5>;599ee112$+o-3576,*4q4%4sfllt62,24,@,50>-;;r9:-: -1ar2e",
"y56hj366::55690:11++#-5477,*4w4*4sgglr66233>#2561=;:e9>;1 ;1ay2e",
"e82kj266:;188891:1+o=;3376,><q4&3sfglr65113>#25e:=;-e61-;.:1iu5t",
"r18zh:<5;-15882111o+::1566<><04%3sfgjw65,3<*#25e1;-;e6,--.;:ty6y",
"r12cf:44;-18898:1>o+;;:565,,<0<&,dggfq7,>1,>#55e1;:-e52+;.%:euei",
"r>8cf%47::1588211;X+==>506,><0<&,dkgdq4,>,,;#18921:-e22=;.$1ryeh",
"t;8zd%63:1112e111,Xoo-:6re,*444*3flgfq431*>%#:8951;$r12-;.;,trrs",
"r;5kd%651=121e-15:X#oo:7e6,,004*4gxsiq35,,>:#,6q51,-e15--X:,rrrd",
"i-8df%55:=1118:11:oo#o5606**444*3sgsrq4554,$#:9951::625;;X;5rruh",
"r-5si%221:1812=:::oo##5702&*444%3sgsr04553>$#:6r251:925;:X;2qryd",
"p#5au>1,-;1112-:11.oo$5602$>44436sgpr044<*>;;>5r15,:8281>O>20qrf",
"p#2ir;21;-1115-=::.oo#,562>,444*0fjsrq551*%$#>6e355:8591:O>eeqrg",
"p;1rr-8:-;81:5--::.=o#%<72>>466*6gkptw665>%##:6e146180e:>#=ee0rs",
"d-:ee;5;-=81:2-o:1X=X#:162>>*44*6fgppr66>++O$>68>7q5821::o;022rd",
"d;+2w;e>oo5515=X=:Xooo#571%$@16*6fs0ww44;OXO#>6,$4q165#;:#:51$rs",
"h:1-r>r2:=5558==-1o#o-#,6,%$:36,6sa46q43,:#O+>5$O4q6555@,+,2%50a",
"u=>>91r5#o8559---1o#oo-161:#o:747si,6q4<>OOO+>1-$,707%@$5#,2%$rp",
"h=>ey:t5;#8558-X=1=:#X#363>:$>777sswpq44,+O+->1-@,407>%*6o%1,>rt",
"d=>yy;i9119528;=#2o:#o:662:,,*077sfpsq44,$++&>2>%34q0*<47O*,44wr",
"d=1ry;p655e828::;>X::-,r61>2<<077sgssi44,>++$&2,,34q0,647@>,46rr",
"d=1r9;pr96ye88::;:o2:-19r,*140077pgssi43>:++&%,1336q0,407O*<<2rr",
"u;1t8$0966rr961:;>#55-570<&><0634skfpq4,>>+$%$12,44i414q0O&<20rr",
"f;1e9#6745ei961:;:+52;3662:>566,5fksir6,>:@##$11450w4,4q4$*,<0tw",
"d;1e5%5756tar9>:;:+25:5765>,3qq,4glarw4>>:O$$:11347q7,6q6@,*,4t0",
"u:1e5#3766rar61;-,#65:5771>,4rw33klpw7<*>$+@$%,,,4q07,406$*,,2t0",
"h:165$3r45ray81;$:#56:56<1>,3qp31lkiwq*,:@#@$:,,,4q644464%&&<0t6",
"a;192;:r55ehue2:-1#56,564>:,30i*4xlpwq4,;#$+%>1,,4q441<74*@*<0r0",
"u-282-:r59yzpe2:-1#263665,:,1qp*4xgpw06<>@$+@>,>,4w6<<,70*+*<0r0",
"u-882##t7wilae1;;1#,9,6q4,:14rp>4llst00<<+$+@,,&:40445,00,O*<0ee",
"u;912##r6rizh91;-5#56,6q5>,,6rp*3lzdtw00,+$+$,,&%<0445,46,+&<0re",
"r;e55##06rfcft1;-5->917q6>*4qts*3lvgpwq4,$&+&,<&$,4434140*@&4700",
"r;r66##67tklht2:-5-:01604*<4wps**kbgswq4,$$$&<,&$&04,4,4q*%><06r",
"6:700+#76rgxhr5;=6::61476,,0wpp4,gnlawq4,$$$$4,&O&4<,4%7q4*,,60r",
"7;,6w+$7<4sxkr5#-6$,0>%,5<466qp4*gvfppq3&+$%$<<@O+74,4#5w4,,&<0e",
"4#15q#$7,;tzhr5##7#,7:#,5<<,36w,,jjqwsp4&+;;$6,#O@q4,,#3w4,<$;qr",
"1%:57o,q:;ezhr2:-6-,73#:<<<,*3q,,ja5rfp4,+%;%4,OO@q4,>::74*4@%0t",
"<,157@3q:,ykfr2::6$,7,$*,<<,40w*,kfwaft4,O@,$5,#@@04,1$*7,*0$,7w",
"12r54@3736ajf63$:r$,76,4,,,4wpt*,jxgfgw61@;,%43@X@6432@,6<,4%55q"
};
