/* XPM */
static char *result[] = {
/* columns rows colors chars-per-pixel */
"64 64 13 1 ",
"  c #418A41",
". c #468C48",
"X c #4D8A4E",
"o c #479249",
"O c #589659",
"+ c #4BA34D",
"@ c #4CA14D",
"# c #4CAF50",
"$ c #4CB050",
"% c #4DB050",
"& c #4CB150",
"* c #4DB150",
"= c None",
/* pixels */
"================================================================",
"================================================================",
"================================================================",
"================================================================",
"================================================================",
"================================================================",
"================================================================",
"================================================================",
"================================================================",
"================================================================",
"================================================================",
"================================================================",
"================================================================",
"=====================######$$$%##$##########====================",
"=====================##....o+..o..........##====================",
"=====================##.##$%#%##%#$##$###.##====================",
"=====================##.###%$#  O  $#$$##.##====================",
"=====================##.##*### === &$%##$.##====================",
"=====================##.$##$##O===X*$%%#$o##====================",
"=====================##o$#%##$.===X%%##%#o##====================",
"=====================##.%#$#%%. XXO%###%%o$#====================",
"=====================##O#%##%$&$%%######%+##====================",
"=====================##.####**#%#$&######+##====================",
"=====================##.#####%%%%%$$#####.##====================",
"=====================##o####%####%%*%$#$$.##====================",
"=====================#%.####$#####%%%%$%%.##====================",
"=====================##.%%$#######%##$$%%+##====================",
"=====================##.##$#*%###########.##====================",
"=====================##....+...O.o........##====================",
"=====================#########%$##%#########====================",
"===========================*####$#%##===========================",
"===========================*@.####@.#===========================",
"===========================*@o####@o#===========================",
"=============================.####@.#===========================",
"==============================####@.#===========================",
"==============================$$##@o#===========================",
"==============================$$##@o#===========================",
"==============================$$##@.#===========================",
"==============================$###@.#===========================",
"==============================####@.#===========================",
"==============================####@.#===========================",
"==============================####@o#===========================",
"==============================####@o#===========================",
"=============================#####@o#===========================",
"============================######@.#===========================",
"=============================#####@.#===========================",
"==============================####@.#===========================",
"==============================####@.#===========================",
"==============================####@.#===========================",
"==============================####@.#===========================",
"=============================#####@o#===========================",
"=============================#####@o#===========================",
"============================######@o#===========================",
"==============================####@.#===========================",
"==============================####@.#===========================",
"===============================###@.============================",
"=================================#==============================",
"================================================================",
"================================================================",
"================================================================",
"================================================================",
"================================================================",
"================================================================",
"================================================================"
};
