/* XPM */
static char *result[] = {
/* columns rows colors chars-per-pixel */
"64 64 234 2 ",
"   c #7C3033",
".  c #930C0D",
"X  c #9C0C0D",
"o  c #990805",
"O  c #8F100F",
"+  c #96110F",
"@  c #9D100B",
"#  c #990D10",
"$  c #8F1D1D",
"%  c #8B1314",
"&  c #9C1313",
"*  c #951C1C",
"=  c #9A1B1C",
"-  c #991717",
";  c #8D0705",
":  c #AC0605",
">  c #A40807",
",  c #AA0A06",
"<  c #AC0608",
"1  c #A50B0C",
"2  c #AA0A0A",
"3  c #A40606",
"4  c #B30706",
"5  c #B20906",
"6  c #B40709",
"7  c #B40B0B",
"8  c #BC0A0A",
"9  c #BA0808",
"0  c #A2110F",
"q  c #B6100D",
"w  c #A00F12",
"e  c #AC0D11",
"r  c #A41414",
"t  c #AA1314",
"y  c #A71A17",
"u  c #AB1619",
"i  c #A41B1C",
"p  c #AB1A1B",
"a  c #A61817",
"s  c #B11313",
"d  c #BC1313",
"f  c #B11C1C",
"g  c #BA1C1D",
"h  c #BA1618",
"j  c #8F201E",
"k  c #96211D",
"l  c #9E211F",
"z  c #A3221F",
"x  c #B2201F",
"c  c #981E23",
"v  c #A81E21",
"b  c #B11E21",
"n  c #BC1F21",
"m  c #8E2423",
"M  c #8C2927",
"N  c #8C2628",
"B  c #852B2B",
"V  c #8C2B2A",
"C  c #872528",
"Z  c #932424",
"A  c #9B2424",
"S  c #942A26",
"D  c #942A2B",
"F  c #9D2B2C",
"G  c #96272A",
"H  c #95312F",
"J  c #9A312D",
"K  c #862E32",
"L  c #982F30",
"P  c #863435",
"I  c #893435",
"U  c #8D363A",
"Y  c #853C3B",
"T  c #8C3B3D",
"R  c #863639",
"E  c #933433",
"W  c #9C3334",
"Q  c #9B3639",
"!  c #953B3B",
"~  c #9A3B3B",
"^  c #94353A",
"/  c #A42425",
"(  c #AB2323",
")  c #A42529",
"_  c #A22C2B",
"`  c #AB2B2D",
"'  c #A72728",
"]  c #B42424",
"[  c #BB2A2D",
"{  c #BC2328",
"}  c #B6302F",
"|  c #A82E31",
" . c #BA2F33",
".. c #A33434",
"X. c #AC3435",
"o. c #A43639",
"O. c #AA3638",
"+. c #A33C3D",
"@. c #AB3C3D",
"#. c #AA3937",
"$. c #B33334",
"%. c #BC3335",
"&. c #B43739",
"*. c #B33A3C",
"=. c #BC3B3C",
"-. c #B63838",
";. c #AC322D",
":. c #C70908",
">. c #C41719",
",. c #C22928",
"<. c #C53837",
"1. c #C82930",
"2. c #B5413E",
"3. c #A6433D",
"4. c #8C3F41",
"5. c #923E43",
"6. c #9C3D42",
"7. c #AF3F40",
"8. c #A03F43",
"9. c #B43E44",
"0. c #C53E42",
"q. c #8D4344",
"w. c #8F4845",
"e. c #8B4B4D",
"r. c #8A4749",
"t. c #924443",
"y. c #9C4344",
"u. c #974649",
"i. c #934B4B",
"p. c #9C4C4B",
"a. c #914A47",
"s. c #99514F",
"d. c #8D4E54",
"f. c #944E51",
"g. c #9C4D51",
"h. c #8E5659",
"j. c #9B5353",
"k. c #93555A",
"l. c #9B575A",
"z. c #935B59",
"x. c #9D5A5A",
"c. c #975352",
"v. c #A24445",
"b. c #AD4444",
"n. c #A54549",
"m. c #AA474B",
"M. c #A24B4C",
"N. c #AD4C4C",
"B. c #A94946",
"V. c #B54345",
"C. c #BC4444",
"Z. c #BC464A",
"A. c #B24B4B",
"S. c #BA4D4A",
"D. c #B94748",
"F. c #A2524E",
"G. c #B3574F",
"H. c #BE4F52",
"J. c #B04D50",
"K. c #AD5354",
"L. c #AF5658",
"P. c #AB5B5B",
"I. c #A3585C",
"U. c #B65253",
"Y. c #B25B5B",
"T. c #BA5B5C",
"R. c #BC5756",
"E. c #A74D55",
"W. c #96635F",
"Q. c #BF635C",
"!. c #9B5D61",
"~. c #925C65",
"^. c #A85F65",
"/. c #B85D62",
"(. c #9B6364",
"). c #977578",
"_. c #9A6F73",
"`. c #A56364",
"'. c #AA6362",
"]. c #A5636A",
"[. c #A36C6D",
"{. c #AD6B6B",
"}. c #A96768",
"|. c #BC696B",
" X c #B56666",
".X c #AE716E",
"XX c #B5716E",
"oX c #A96D72",
"OX c #B76F74",
"+X c #BE6E75",
"@X c #A57174",
"#X c #A5797D",
"$X c #AC7A7C",
"%X c #A97479",
"&X c #BB7475",
"*X c #B67679",
"=X c #C24548",
"-X c #C54A48",
";X c #C25B5C",
":X c #C75757",
">X c #CD5053",
",X c #CA6A6B",
"<X c #C76566",
"1X c #D46767",
"2X c #C36D72",
"3X c #C47574",
"4X c #C47B7B",
"5X c #C87677",
"6X c #D4787A",
"7X c #BD807F",
"8X c #9F7F81",
"9X c #B87E83",
"0X c #AA8788",
"qX c #B48284",
"wX c #B9878B",
"eX c #B88787",
"rX c #BB9697",
"tX c #C48384",
"yX c #C48A8C",
"uX c #C98A8C",
"iX c #C88684",
"pX c #CA9089",
"aX c #CB9494",
"sX c #C49997",
"dX c #D69091",
"fX c #C9A39F",
"gX c #C6A4A6",
"hX c #DAACAF",
"jX c #D0AFB3",
"kX c #E2B4B1",
"lX c #D9C9C7",
"zX c #F0D3CE",
"xX c #E9C3C1",
"cX c None",
/* pixels */
"cXcXcXcXcXcXcXcXcXcXcXcXcXcXcXcXcXcXcXcXcXcXcXcXcXcXcXcXwX_.W.!.[.[.wX`.j.x.cXcXcXcXcXcXcXcXcXcXcXcXcXcXcXcXcXcXcXcXcXcXcXcXcXcX",
"cXcXcXcXcXcXcXcXcXcXcXcXcXcXcXcXcXcXcXcXcXcXcXcXcXcXcXcXcXcXcXQ U.3.B.A + + = W M.cXcXcXcXcXcXcXcXcXcXcXcXcXcXcXcXcXcXcXcXcXcXcX",
"cXcXcXcXcXcXcXcXcXcXcXcXcXcXcXcXcXcXcXcXcXwXrXcXcXcXcXcXcXcXtXS.A.T.@.z ( x e p U.F $ F P.cXcXcXcXcXcXcXcXcXcXcXcXcXcXcXcXcXcXcX",
"cXcXcXcXcXcXcXcXcXcXcXcXcXcXcXcXcXt.Y $XsXq.U cXcXcXcXcXcXcXc o ( cXcXcXcXcXcXcXcXcXcX) o A.cXcXcXcXcXcXcXcXcXcXcXcXcXcXcXcXcXcX",
"cXcXcXcXcXcXcXcXcXcXcXcXcXcXcXcXP V A T.Y._ F cXcXcXcXcXcXcX- 1 h cXcXcXcXcXcXcXcXcXcXcXC.( &.cXcXcXcXcXcXcXcXcXcXcXcXcXcXcXcXcX",
"cXcXcXcXcXcXcXcXcXcXcXcXcXcXs.B Z 1 i ;XaXcXcXcXcXcXcXcXcXT A : :.cXcXcXcXcXcXcXcXcXcXcXcXcX7.+.cXcXcXcXcXcXcXcXcXcXcXcXcXcXcXcX",
"cXcXcXcXcXcXcXcXcXcXcXcXcX5.V k / U.cXaXcXcXcXcXcXcXcXcXcXV & [ :.0.cXcXcXcXcXcXcXcXcXcXcXcXcXcX'.gXcXcXcXcXcXcXcXcXcXcXcXcXcXcX",
"cXcXcXcXcXcXcXcXcXcXcXcXi.y.D A.cXcXcXcXcXcXcXcXcXcXcXcXT Z y ,X:.1.cXcXcXcXcXcXcXcXcXcXcXcXcXcXcXcXqXcX#XcXcXcXcXcXcXcXcXcXcXcX",
"cXcXcXcXcXcXcXcXcXcXcXi.}.y.aXcXcXcXcXcX#XcXcXcXcXcXcX0XN = *.cX:.>.cXcXcXcXe.cXcXcXcXcXcXcXcXcXcXcXcX}.yX7XcXcXcXcXcXcXcXcXcXcX",
"cXcXcXcXcXcXcXcXcXcXr.rXgXcXcXcXcXcXcXcXrXcXcXcXcXcXcXu.O 1 cXcX>.8 Z.cXcXcXcXcXcXcXcXcXcXcXcXcXcXcXcXcX*XY.gXcXcXcXcXcXcXcXcXcX",
"cXcXcXcXcXcXcXcXcXf.cXcXcXcXcXcXcXcXcXcXcXcXcXcXcXcXcX! . b cXcXV.2 <XcXcXcXcXcXcXcXcXcXcXcXcXcXcXcXcXcXcXv.7.cXcXcXcXcXcXcXcXcX",
"cXcXcXcXcXcXcXcXd.cXcXcXcXcXcXlXcXcXcXcXcXcXcXcXcXcXcXV & S.cXcXcXr =.cXcXcXcXcXcXcXcXcXcXcXcXcXcXcXcXcXcX X- | cXcXcXcXcXcXcXcX",
"cXcXcXcXcXcXcX4.cXcXcXcXcXcXcXcXI p.cXcXcXcXcXcXcXcXI.S a cXcXcXcX_ t cXcXcXcXcXcXcXcXcXcXcXcXcXcXcXcXk.cXcX3Xt ] cXcXcXcXcXcXcX",
"cXcXcXcXcXcXj.z.cXcXcXcXcXcXcXcXQ F cXcXcXcXcXcXcXcXI * $.cXcXcXcXN.1 Q.cXcXcXcXcXcXcXcXcXcXcXcXcXcXcXe.cXcXcXcXe #.cXcXcXcXcXcX",
"cXcXcXcXcXx.T cXcXcXcXcXcXcXcXcXl.'.cXcXcXcXcXcXcXcXN @ D.cXcXcXcXcX..] |.cXcXcXcXcXcXcXcXcXcXcXcXcXcXcXcXcXcXcX` > V.cXcXcXcXcX",
"cXcXcXcXcXR cXcXcXcXcXcXcXcXcXcXcXcXcXcXcXcXcXcXcXi.S & cXcXcXcXcXcXcX> 7 cXcXcXcXcXcXcXcXcXcXcXcXcXcXcXcXcXcXcXcXu s cXcXcXcXcX",
"cXcXcXcXq.q.cXcXcXcXcXcXcXcXcXcXcXcXcXcXcXcXcXcXcXI = &.cXcXcXcXcXcXcXc : %.cXcXcXcXcXcXcXcXcXcXcXcXcXcXcXcXcXcXcXm.] $.cXcXcXcX",
"cXcXcXcXK cXcXcXcXcXcXcXcXcXcXcXcXl.z.cXcXcXcXcXcXM X cXcXcXcXcXcXcXcX5X2 d gXcXcXcXcXcXcXcXcXcXcXcXcXcXcXcXcXcXcXcX|.p cXcXcXcX",
"cXcXcXt.t.cX{.cXcXcXcXcXcXcXcXcXcXq.P.cXcXcXcXcXY Z / cXcXcXcXcXcXcXcXcX/ 4 <XcXcXcXcXcXcXcXcXcXcXcXcXcXcXcXcXcXcXcXcX&.X.cXcXcX",
"cXcXcXB cX|.cXcXcXcXcXcXcXcXcXcXcXcXcXcXcXcX[.`.E = V.cXcXcXcXcXcXcXcXcXJ.> [ cXcXcXcXcXcXcXcXcXcXcXcX%XcXcXcXcXcXcXcXcXi cXcXcX",
"cXcXu.T cX|.cXcXcXcXcXcXcXcXcXcX).cXcXcXcXcX'.% X a cXcXcXcXcXcXcXcXcXcX*Xa q cXcXcXcXcXcXcXcXcXcXcXcXi..XcXgXcXcXcXz.cX* #.cXcX",
"cXcXP Q.U.2._ S T Y 4.q.K 4.q.r.M.v.F A D V A X 6 <.cXcXgXcXcXcXcXcXcXcXx.o., =.cXcXcXcXcXcXk.t.m $ j A & X _ ~ J F S L./ i cXcX",
"cXcXB /.,XcXcXcXcXcXcXzXxXyXU.S._ & 2 1 > < 2 9 :.>X,XcXcXcXcXcXcXcXcXcXt.o.4 ,.4XN.+.N.Q c O r X r f u f $.cXcXcXcX5X:XH.6 =.cX",
"cXw.Z cXD.&.cXcXqXcXcXcXcXcXXXcXcXcXcX=X9.0.-X:.>.1X,XG.cXcXcXcXcXcXcXcXcX..6 ,.cXcXcXcXcXcXcXcXcXcXcXcXcXcXcXcXcX_ 1 t dX9 { cX",
"cXI H cXcXC.( cXcX%XcXcXcXcXP.cXcXcXcXcXcXcX>X9 >XcXcXcXcXcXcXcXcXcXcXcXcX@.9 >.cXcXcXcXcXcXcXcXcXcXcXcXcXcXcXcXZ U.b.cXcX] 9 cX",
"cXC N.cXcXcXcX& O.cXcXI.u.I.cXcXcXcXcXcXcXcXeXe cXcXcXcXcXcXcXcXcXcXcXcXcXcX2 q cXcXcXcXcXcXcXcXcXcXcXcXcXcXI.S .XcXcXcXcX=.5 cX",
"cXD 4XcXcXcXcXcX/ a  XcXD ^.cXcXcXcXcXcXcXcXcXA cXcXcXcXcXd.cXcXI p.cXcXcXcX` 5 :XcXcXcXcXcXcXcXcXcXcXcXe.i.{.cXcXcXcXcXcXcX0 9.",
"u.M cXcXcXcXcXcXcXA.1 U.hX2X|.cXcXcXcXcXcXcXi.^ cXcXcXcXcXcXoXcXt.cXcXcXcXcX7X&.[ cXcXcXcXcXcXcXcXcXcXcX@X#XcXcXcXcXcXcXcXcX..5X",
"^ S cXcXcXcXcXcXcXcX2Xp y cXcXrXcXcXcXcXcXcXq.cXcXcXcXcXcXcXcXg.cXcXcXcXcXcXcX4Xe 6XcXcXcXcXcXcXcXcXcXrXcXcXcXcXcXcXcXcXcXcXn.cX",
"U Z cXcXcXcXcXcXcXcX`.cX&.7 %.cXcXcXcXcXcXcXt.cXcXcXcXcXcXcXcXcXcXcXcXcXcXcXcXsX-.$.cXcXcXcXcXcXcXcX#X.XcXcXcXcXcXcXcXcXcXcXF.m.",
"U - <XcXcXcXcXcXcXcX}.cXcXD.t p cXcXcXcXcXa.r.cXcXcXcXcXcXcX$XP cXcXcXcXcXcXcXcXyXt cXcXcXcXcXcXk.~.cX^ cXcXcXcXcXcXcXcXcXcXw.v.",
"T & T.cXcXcXcXcXcXcXcXcXcXcXcXb 1 X.cXcXq.V cXcXcXcXcXcX0XcXcXD p.cXcXcXcXcXcXcXcXa 9.cXcXcXcXe.!.$XcXyXcXcXcXcXcXcXcXcXcXcXu.`.",
"Y & <XcXcXcXcXcXcXcXcXcXcXcXcXcX$.> a b.W 6.cXcXcXcXcXcXcXcXcXcXOXcXcXcXcXcXcXcXcX..` cX{.I.q.].].cX}.cXcXcXcXcXcXcXcXcXcXcXx.cX",
"w.& :XcXcXcXcXcXcXcXcXcXcXcXcXcXcX;Xs , 1 iXcXcXcXcXcX  cXcXcXcX].cXcXcXcXcXcXcXcXcX/ R.A M.qXcXcXcXcXcXcXcXcXcXcXcXcXcXcXcXw.cX",
"q.@ C.cXcXcXcXcXcXcXcXcXcXcXcXcXcXcXcXu 9 =XcXcXcXcX(.c.cXcXcXcX(.cXcXcXcXcXcXcXcXcX..< X.cXcXcXcXcXcXcXcXcXcXcXcXcXcXcXcXcXt.cX",
"`.= X.cXcXcXcX).cXcXcXcXcXcXcXcXcXcXcXr h :.h U.cXcXcXcXcXcXcXcXcXcXcXcXcXcXcXcXcXT E ;.cXcXcXcXcXcXcXcXcXcXcXcXcXcXcXcXcXcXy.u.",
"cX* 1 cXcXcXcXcXcXj.r.cXcXcXcXcXcXcX(.F T.cX{ , ' M.cXcXcXcXcXcXcXcXcXcXcXcXcXp.C E @.f cXcXcXcXcXcXcXcXcXcXcXcXcXcXcXcXcXcXD E.",
"cXZ < cXcXcXcXcXcXj.cXcXcXcXcXcXcXcXT W cXcXcX} 7 > A |.{.cXcXcXcXcXcXcXcXcXq.N D aX,X7 cXcXcXcX`.cXcXcXcXcXcXcXcXcXcXcXcXf.m cX",
"cX*Xt =XcXcXcXcXcXcXcXcXcXcXcXcXcXcXB M.cXcXcXcX,Xs 4 2 #.cXcXcXcXcXcXcXcXP M Q cXcX4X9 %.cXcXcXR `.cXcXcXcXcXcXcXcXcXcXcX5.Z cX",
"cXcXv =XcXcXcXcXcXcXcXcXcXcXcXcXcXU S cXcXcXcXcXcXcX%.9 7 <.cXcXcXcXcXsXp.V M.cXcXcX3X2.g cXcXcXcXcXcXcXcXcXcXcXcXcXcXcXcXV y.cX",
"cXcXv.*.cXcXcXcXcXcXcXcXcXcXcXcX[.V 8.cXcXcXcXcXcXcXcX-Xd 8 ( T.cXcXcX! * K.cXcXcXcXcX3X6 =XcXcXcXcXcXcXcXcXcXcXcXcXcXcXf.H cXcX",
"cXcX'.Q cXcXcXcXcXcXcXcXcXcXcXcXt.M cXcXcXcXcXcX).cXcXcXcX%.9 7 ` &XT H +.cXcXcXcXcXcX}.y [ cXcXcXcXp.x.cXcXcXcXcXcXcXcXK ! cXcX",
"cXcXl.* cXcXcXcXcXcXcXcXcXcXcXcXU W cXcXcXcXcXcX_.cXcXcXcXcX=X6 4 > J.cXO.cXcXcXcXcXcXcX&.] cXcXcXcXt.g.cXcXcXcXcXcXcXcXM M.cXcX",
"cXcXcX- O.cXcXcXcXcXcXcXcXcXcXcXC Y.cXcXcXcXcXcXcXcXcXcXcXcX/ 5 d >.q ,XcXcXcXcXh.cXcXcXcX1 cXcXcXcXcXcXcXcXcXcXcXcXcXp.Z cXcXcX",
"cXcXcXJ a cXcXcXR cXcXcXcXcXcXl.~ cXcXcXcXcXcXcXcX$XcXcXx.V _ X.cX6X-Xg 0.cXcXcXI ~ cXcXcXv #.cXcXcXcXcXcXcXcXcXcXcXcXI Q cXcXcX",
"cXcXcXy.X cXcXcX%XcXcXcXcXcXcXj.s.cXcXcXcXcXcXcXcXqX5.! D . +.cXcXcXcXcX] *.cXcXI.Z cXcXcXy.r cXcXcXcXcXcXcXcXcXcXcXq.i.OXcXcXcX",
"cXcXcXcXX &.cXcXcXcXcXcXcXcX(.V cXcXcXcXcXcXR k.cXcXS o & m.cXcXcXcXcXcXcX$.) cXcXcXcXcXcXcXX  XyXcXcXcXcXcXcXcXcXcXq.cXcXcXcXcX",
"cXcXcXcX| 4XjXcXcXcXcXcXcXcXq.t.cXcXcX#Xx.}.D y.cXF & ` cXcXcXcXcXcXcXcXcXcX- v cXcXcXcXcXcX_ $.cXcXcXcXcXcXcXcXcXI cXcXcXcXcXcX",
"cXcXcXcXL.U.cXcXcXgXcXcXcXcXcXcXcXcXcXcX! sX*XuX` 1 J.hXcXcXcXcXcXcXcXcXcXcXcXp 1 T.cXcXcXcX^.v cXcX!.cXcXcXcXcXc.t.cXcXcXcXcXcX",
"cXcXcXcXcXn.b.cXcX0XcXcX[.l.cXcXcXcXcXcXcXcXcX( S.3XcXcXcXcXcXcXcXcXcXcXcXcXcXcX$., *.cXcXcXcX- cXcXcXcXcXcXcXcXN y.cXcXcXcXcXcX",
"cXcXcXcXcX+.X./.cXcXcXcXcXc.cXcXcXcXcXcXcXp.A Y.cXcXcXcXcXcXcXcXcXcXcXcXcXcXcXcX&Xf 7 ` cXcXcX. A.dXcXcXcXcXcXK S ~ cXcXcXcXcXcX",
"cXcXcXcXcXcXm.cXcX9Xj.cXcXcXcXcXcXcXcXcXi.! }.cXcXcXcXcXcXcXcXcXcXcXcXcXcXcXcXcXcXcX] 8 /.cXtX. b 2XcXcXcXcXU V A cXcXcXcXcXcXcX",
"cXcXcXcXcXcXU.&XcXcXb.cXcXcXcXcXcXcXcXh.`.cXcXcXcXcXcXcXcXcXcXcXcXcXcXcXcXcXcXcXcXcXcX7.-XkXy.N.,XcXcXcXcXU D - cXcXcXcXcXcXcXcX",
"cXcXcXcXcXcXcXcXcXcXm |.cXcXcXcXcXcXcXcXcXcXcXcXcXcXcXcXcXcXcXcXcXcXcXcXcXcXcXcXcXcXcXcXb.V.cX&XcXcX'.pXE V = cXcXcXcXcXcXcXcXcX",
"cXcXcXcXcXcXcXcXcXcXy.k cXcXcXcXcXcXcXcXcXcXcXcXcXcXcXcXcXcXcXcXcXcXcXcXcXcXcXcXcXcXcXcXcXX.X.cXcXcXJ.= . i U.cXcXcXcXcXcXcXcXcX",
"cXcXcXcXcXcXcXcXcXcXcXc a N.cXcXcXcXcXcXcXcXcXcXcXcXcXcXcXcXcXcXcXcXcXcXcXcXcXcXcXcXcXcXcXcXV.N.cXg.~ = 1 cXcXcXcXcXcXcXcXcXcXcX",
"cXcXcXcXcXcXcXcXcXcXcXcX| 2 ( pXcXcXcXcXcXcXcXcXcXcXcXcXcXcXcXcXcXcXcXcXcXcXcXcXcXcXcXcXcXcXv.r ( i _ p cXcXcXcXcXcXcXcXcXcXcXcX",
"cXcXcXcXcXcXcXcXcXcXcXcXcXZ.p i Y.*X].cXcXcXcXcXcXcXcXcXcXcXcXcXcXcXcXcXcXcXcXcXcXcXcXcXcXcXv.w , 4 b cXcXcXcXcXcXcXcXcXcXcXcXcX",
"cXcXcXcXcXcXcXcXcXcXcXcXcXcXcX` : p R.cXcXcXcXcXcXcXcXcXcXcXcXcXcXcXcXcXcXcXcXcXcXcXcXx.C ; i , :.Z.cXcXcXcXcXcXcXcXcXcXcXcXcXcX",
"cXcXcXcXcXcXcXcXcXcXcXcXcXcXcXcXZ.] 7 T.cXcXcXcXcXcXcXcXcXcXcXcXcXcXcXcXcXcXcXcXg.u.N M k X p <.cXcXcXcXcXcXcXcXcXcXcXcXcXcXcXcX",
"cXcXcXcXcXcXcXcXcXcXcXcXcXcXcXcXcXcX-XC.V.cXcXgXjXcXcXcXcXu.cXcXcXcXcXcXr.t.V V Z = - / *.Z.cXcXcXcXcXcXcXcXcXcXcXcXcXcXcXcXcXcX",
"cXcXcXcXcXcXcXcXcXcXcXcXcXcXcXcXcXcXcXcXQ._ = $ F F - * ..3XuXcXcXc.T B D F A = ` T.cXcXcXcXcXcXcXcXcXcXcXcXcXcXcXcXcXcXcXcXcXcX",
"cXcXcXcXcXcXcXcXcXcXcXcXcXcXcXcXcXcXcXcXcXcXcXA.o.#.| t : : 1 1 o = = Y.cXcXcXcXcXcXcXcXcXcXcXcXcXcXcXcXcXcXcXcXcXcXcXcXcXcXcXcX",
"cXcXcXcXcXcXcXcXcXcXcXcXcXcXcXcXcXcXcXcXcXcXcXcXcXcXcXcX=.,.<.,.%.$.=.cXcXcXcXcXcXcXcXcXcXcXcXcXcXcXcXcXcXcXcXcXcXcXcXcXcXcXcXcX"
};
