/* XPM */
static char *result[] = {
/* columns rows colors chars-per-pixel */
"64 64 224 2 ",
"   c #080008",
".  c #020015",
"X  c #0D0016",
"o  c #0D0019",
"O  c #040018",
"+  c #130016",
"@  c #13001A",
"#  c #1C041C",
"$  c #1E091D",
"%  c #180719",
"&  c #23041D",
"*  c #20081D",
"=  c #2A0C1E",
"-  c #2D021E",
";  c #26131D",
":  c #2C1C1E",
">  c #29171C",
",  c #35091D",
"<  c #2E221B",
"1  c #342B1D",
"2  c #33231B",
"3  c #3B391E",
"4  c #1A0120",
"5  c #260D20",
"6  c #320E20",
"7  c #370B22",
"8  c #2C1323",
"9  c #2F1821",
"0  c #321B22",
"q  c #3C1C24",
"w  c #331824",
"e  c #321B33",
"r  c #372825",
"t  c #393426",
"y  c #36222B",
"u  c #470823",
"i  c #4C1626",
"p  c #441D27",
"a  c #5C1728",
"s  c #641C29",
"d  c #432626",
"f  c #47352A",
"g  c #473627",
"h  c #533629",
"j  c #5A3531",
"k  c #573734",
"l  c #502E33",
"z  c #633C36",
"x  c #6D3132",
"c  c #41431F",
"v  c #4A531E",
"b  c #454922",
"n  c #52422C",
"m  c #4E5922",
"M  c #4B5323",
"N  c #515D25",
"B  c #555F2F",
"V  c #5C5A33",
"C  c #5D4B32",
"Z  c #674628",
"A  c #6C552A",
"S  c #755B2C",
"D  c #664736",
"F  c #7A4736",
"G  c #546125",
"H  c #5B6C2C",
"J  c #596927",
"K  c #5F732F",
"L  c #586835",
"P  c #5F7035",
"I  c #7C6B31",
"U  c #776130",
"Y  c #64763C",
"T  c #647835",
"R  c #7E7232",
"E  c #71611C",
"W  c #5C384B",
"Q  c #623D4F",
"!  c #68454A",
"~  c #724C4A",
"^  c #78514D",
"/  c #795355",
"(  c #694F51",
")  c #687B41",
"_  c #5E4C63",
"`  c #7C5D72",
"'  c #6B5B70",
"]  c #9A3435",
"[  c #8F2B30",
"{  c #A92937",
"}  c #A33337",
"|  c #B53A3A",
" . c #BC3C3C",
".. c #B03739",
"X. c #8D1F32",
"o. c #C53F3D",
"O. c #84483C",
"+. c #945B39",
"@. c #87523E",
"#. c #A04C35",
"$. c #836D32",
"%. c #896C30",
"&. c #8A7333",
"*. c #857C3E",
"=. c #847736",
"-. c #917C36",
";. c #96613D",
":. c #B27239",
">. c #C8403E",
",. c #C6653E",
"<. c #8D5C51",
"1. c #866A4B",
"2. c #997C53",
"3. c #AA6443",
"4. c #B17343",
"5. c #885F64",
"6. c #8A666A",
"7. c #9B6F71",
"8. c #9D7173",
"9. c #916F67",
"0. c #A67879",
"q. c #AA7C7B",
"w. c #A37678",
"e. c #AE5F41",
"r. c #D54D42",
"t. c #6D873A",
"y. c #718C3C",
"u. c #76943E",
"i. c #769442",
"p. c #7C9C47",
"a. c #7B9B46",
"s. c #6D8343",
"d. c #7FA049",
"f. c #8A833B",
"g. c #9C8636",
"h. c #95853A",
"j. c #9F943E",
"k. c #B29E2E",
"l. c #B39C3B",
"z. c #A59434",
"x. c #A7A13A",
"c. c #B4A33C",
"v. c #BAA839",
"b. c #C4B13E",
"n. c #C6C639",
"m. c #898441",
"M. c #968842",
"N. c #9B9445",
"B. c #999B46",
"V. c #A49C44",
"C. c #A89B41",
"Z. c #B49247",
"A. c #81A34B",
"S. c #86AB4C",
"D. c #85AB4A",
"F. c #8EAC4D",
"G. c #AAA54A",
"H. c #A9A448",
"J. c #B9A540",
"K. c #B8AB47",
"L. c #B9B54B",
"P. c #B5B351",
"I. c #BDA978",
"U. c #CB8B49",
"Y. c #C28348",
"T. c #D8874A",
"R. c #C89748",
"E. c #D09F41",
"W. c #C6B040",
"Q. c #C3BD4A",
"!. c #CDBB4A",
"~. c #CCB944",
"^. c #D0B749",
"/. c #CEAF4F",
"(. c #C4C444",
"). c #CBCE43",
"_. c #C4C34D",
"`. c #CDC44B",
"'. c #C6C94C",
"]. c #CACB4E",
"[. c #C5C845",
"{. c #DBD14C",
"}. c #C5C551",
"|. c #C7C853",
" X c #C8C953",
".X c #CAC252",
"XX c #D3CC53",
"oX c #CCD255",
"OX c #CBDA56",
"+X c #CCD058",
"@X c #D2D455",
"#X c #D4D956",
"$X c #D9DD59",
"%X c #D8D954",
"&X c #DAC645",
"*X c #E0DF54",
"=X c #DBE15A",
"-X c #CFE257",
";X c #E5EC5C",
":X c #E0E054",
">X c #CCC960",
",X c #D4D577",
"<X c #D4D06C",
"1X c #EFF171",
"2X c #C0B1B2",
"3X c #D7D780",
"4X c #DADC8C",
"5X c #D9CD9E",
"6X c #D4C693",
"7X c #DBDC90",
"8X c #E0E19D",
"9X c #F0F48D",
"0X c #E5E5AE",
"qX c #E8E9B8",
"wX c #C7BAC0",
"eX c #ECECC3",
"rX c #F3F4DA",
"tX c #FFFFC2",
"yX c #F9F9EB",
"uX c #FFFFFF",
"iX c #FAF7FB",
"pX c #EEEAEE",
"aX c #DFDAE8",
"sX c None",
/* pixels */
"sXsXsXsXsXsXsXsXsXsXsXsXsXsXsXsXsXsXsX* * * * * * * * $ $ $ * $ $ * $ $ $ $ * * $ $ * $ * sXsXsXsXsXsXsXsXsXsXsXsXsXsXsXsXsXsXsX",
"sXsXsXsXsXsXsXsXsXsXsXsXsXsXsXsX* * * $ o @ @ + + X @ X X o X @ @ X o o X @ X o @ @ o @ $ * * * sXsXsXsXsXsXsXsXsXsXsXsXsXsXsXsX",
"sXsXsXsXsXsXsXsXsXsXsXsXsXsXsX* * % @ & u d g d f f f f f f f f f f f f f f f g f d d u * @ # * * sXsXsXsXsXsXsXsXsXsXsXsXsXsXsX",
"sXsXsXsXsXsXsXsXsXsXsXsXsXsX* * $ # o 7 } :.c.l.L.}.}.}.}.}.}.}.}.}.}._.}.}.|.L.l.c.:.} 7 o # * * * sXsXsXsXsXsXsXsXsXsXsXsXsXsX",
"sXsXsXsXsXsXsXsXsXsXsXsXsX* * @ $ A f.N.R.!.].].).).).).).).).).).).).).).).).).].].^.R.N.h.A $ @ * * sXsXsXsXsXsXsXsXsXsXsXsXsX",
"sXsXsXsXsXsXsXsXsXsXsXsXsX* % - s J.;X=XOX+X'.].,X7X4X4X7X7X7X7X4X7X7X7X7X7X7X,X'. X+XOX$X*XJ.j 6 % * sXsXsXsXsXsXsXsXsXsXsXsXsX",
"sXsXsXsXsXsXsXsXsXsXsXsXsX* o a >.!.oX X X X|.>XyXuXuXuXuXuXuXuXuXuXuXuXuXuXuXrX>X}. X X XoX/.r.a X $ sXsXsXsXsXsXsXsXsXsXsXsXsX",
"sXsXsXsXsXsXsXsXsXsXsXsX* $ . h R.}.+X X X(.3XyXuXuXuXuXuXuXuXuXuXuXuXuXuXuXuXuXyX3X(.|.|.+XXX^.k . * * sXsXsXsXsXsXsXsXsXsXsXsX",
"sXsXsXsXsXsXsXsXsXsXsX* $ $ u +.'.|. X X X[.,XqX0X0X0X0X0X0X0X0X0X0X0X0X0X0X0X0XqX,X(.|. X X X-X+.u 5 % * sXsXsXsXsXsXsXsXsXsXsX",
"sXsXsXsXsXsXsXsXsXsXsX* # $ [ T.@X X X X X X_.(.(.(.(.(.(.(.(.(.(.(.(.(.(.(.(.(.[.|. X X|. X X XT.] $ # * sXsXsXsXsXsXsXsXsXsXsX",
"sXsXsXsXsXsXsXsXsXsXsX* # * %.^. X X X|. X X X X|.|. X].].|.].|.|.|.|.]. X].|.|.|. X X X X X X X%XM.* # * sXsXsXsXsXsXsXsXsXsXsX",
"sXsXsXsXsXsXsXsXsXsXsX* @ * h.%X X X X X X X|. X X|. X|.|.|. X X|.|.|.|.|. X|. X X|. X|. X|. X X=XN.# % * sXsXsXsXsXsXsXsXsXsXsX",
"sXsXsXsXsXsXsXsXsXsXsX$ # 4 N.=X X|. X X X|. X X X X X X|. X X|.|.|. X X|. X X X X X X X X|. X|.$XN.* 4 * sXsXsXsXsXsXsXsXsXsXsX",
"sXsXsXsXsXsXsXsXsXsXsX$ # * N.$X|. X X|. X X X X X|. X|. X X X X|. X X X X X X X|. X X|. X X X X=XN.* @ * sXsXsXsXsXsXsXsXsXsXsX",
"sXsXsXsXsXsXsXsXsXsXsX5 @ # N.=X X X X X|. X X X X X X X X X X X X X|. X X X X X X X X X X X X X=XN.* @ * sXsXsXsXsXsXsXsXsXsXsX",
"sXsXsXsXsXsXsXsXsXsXsX* # * h.@X X|. X X X XoX X X X X X|. X X|. X X X X X X XoX X X X X|. X X|.%Xm.* # * sXsXsXsXsXsXsXsXsXsXsX",
"sXsXsXsXsXsXsXsXsXsXsX* # $ %.`. X X X X X X|.}.}.}.}.|.|.|.|. X X X|.|.|.}.}._.].|. X X X X X X!.%.# % * sXsXsXsXsXsXsXsXsXsXsX",
"sXsXsXsXsXsXsXsXsXsXsX* # $ %.!. X X X X XQ.v.k.k.k.v._. X|.|.|. X X X`.b.k.k.k.k.Q.@X X X X X X!.&.* # * sXsXsXsXsXsXsXsXsXsXsX",
"sXsXsXsXsXsXsXsXsXsXsX* @ # &.`.oX X X X Xh.2.5X5X5X5X.X[.|.|.|. X|.+Xj.1.6X5X5X5X>X(. X X X|.oX`.%.$ # * sXsXsXsXsXsXsXsXsXsXsX",
"sXsXsXsXsXsXsXsXsXsXsX* # $ &.!._. X XoX@XA ` uXuXuXiXZ.c.oX|.|. X X#X&.Q pXuXuXiXI.z. X X X|.|.!.&.# # * sXsXsXsXsXsXsXsXsXsXsX",
"sXsXsXsXsXsXsXsXsXsXsX* % $ &.b.J._. XoXXXS 6.uXuXuXpX~ -.OX X|.|. X#X&.( pXuXuXuX6.S oX XXX}.J.b.&.$ # $ sXsXsXsXsXsXsXsXsXsXsX",
"sXsXsXsXsXsXsXsXsXsXsX* % * f.b.c.|.+X XoXZ ` uXuXuXiXW I #X X X X|.$X$.Q uXuXuXuX` Z oX XoX|.c.b.-.# # * sXsXsXsXsXsXsXsXsXsXsX",
"sXsXsXsXsXsXsXsXsXsXsX$ # # +.E.W.Q.]. XoXh.9.wXwXwX2X1.j. X X|. X XoXj.1.2XwXwX2X9.-. X X].Q.b.~.-.# # * sXsXsXsXsXsXsXsXsXsXsX",
"sXsXsXsXsXsXsXsXsXsXsX* # * X.,.c.l.L. X'.#XH.k j j D L.@X|. X|. X X X@XL.D j k k H.$X X XK.l.l.b.&.* % $ sXsXsXsXsXsXsXsXsXsXsX",
"sXsXsXsXsXsXsXsXsXsXsXsX* * - - q ] U.oX X@XQ.V.V.V.H.|.+X X X X|. X|.+X|.G.C.C.V.}.@X XOXU.] q 9 6 $ & sXsXsXsXsXsXsXsXsXsXsXsX",
"sXsXsXsXsXsXsXsXsXsXsX* # @ g B D :.R.L. X|. X$X#X#X@X X|. X X X|. X|.|. X@X#X#X%X X|.|.Q.R.3.D n r @ % * sXsXsXsXsXsXsXsXsXsXsX",
"sXsXsXsXsXsXsXsXsXsX* $ # 9 H.;X@XOXQ.c.|. X|. X X X X X X X X X X|.|. X X|. X X|. X X|.J.L.OX$X{.g.9 $ * * sXsXsXsXsXsXsXsXsXsX",
"sXsXsXsXsXsXsXsXsXsX$ o 0 g.(.oX[.[.(.|.|. X X X X X|. X X|. X@X#X|.|.|.|. X X|. X X X|.}.(.[.[.].Q.g.0 o * sXsXsXsXsXsXsXsXsXsX",
"sXsXsXsXsXsXsXsXsX$ % g -.`.n.,XeXeX4X[.|. X X|.|. X|.|.|.@X=Xf.*.=XoX|. X X X|. X|. X X'.4XeXeX,Xn.].-.g % # sXsXsXsXsXsXsXsXsX",
"sXsXsXsXsXsXsXsXsX# + &.{. X>X0XyXyX8X[.|.|. X|. X X|.|.XX|.G.8 9 G. X@X|.|. X X|. X X|.(.8XyXyX0X>X X{.=.+ # sXsXsXsXsXsXsXsXsX",
"sXsXsXsXsXsXsXsXsX# @ f.%X XrXrX|. X+X|. X|. X X X X X}.=XG.9 @ @ 0 G.=X|.|.|. X|. X X|.]. X X|.rXrX|.%Xf.+ $ sXsXsXsXsXsXsXsXsX",
"sXsXsXsXsXsXsXsXsX$ @ 1.=X].4X3X(.(..X X X X X|.|.|.XX;XV.r . s s . r N.;XXX|. X X X|. X|.].[.[.,X4X X=X1.@ # sXsXsXsXsXsXsXsXsX",
"sXsXsXsXsXsXsXsXsX# o R #X X(._.|. X X X|.|.|.|. X@X XH.t O i | | i . r H.oX@X|.|. X X|. X X X X(.[.|.%X=.@ 4 sXsXsXsXsXsXsXsXsX",
"sXsXsXsXsXsXsXsXsX# 4 S ~. X X|. X X|.|.|.|.|.|. X#XG.9 . i | o.o.| i o 9 G.@X X|.|. X X X X X X X X|.~.S @ * sXsXsXsXsXsXsXsXsX",
"sXsXsXsXsXsXsXsXsXsX4 [ ,.-X-XOX XoX X|.|. XoXOX;XV.r O i .. . . .| ..i O r V.;XOX X|.|.|. X X XoXOXOXT.[ @ sXsXsXsXsXsXsXsXsXsX",
"sXsXsXsXsXsXsXsXsXsXsXi ] U.T.E.`.`.XX$X$X@X/.Y.M.t + a  .r.>.>.o.r.r.| a @ t M.U.^.@X#X$XXX`.XXE.U.U.] u sXsXsXsXsXsXsXsXsXsXsX",
"sXsXsXsXsXsXsXsXsXsXsXsX7 ..{ #.z.g.C.P.P.x.:.{ 7 . 6 ] | } } } } } } | ] 6 . - { ;.x.L.P.C.g.g.#.{ ..7 sXsXsXsXsXsXsXsXsXsXsXsX",
"sXsXsXsXsXsXsXsXsXsXsXsXsXz i & 0 9 0 0 0 0 ; 6 5 # * 6 6 6 6 5 & 6 6 7 6 * $ & 6 9 0 0 r 0 0 0 5 p z sXsXsXsXsXsXsXsXsXsXsXsXsX",
"sXsXsXsXsXsXsXsXsXsXsXsXsXsXsXsXsXsXsXsXsXsXsXsXsXsXsXsXsXsX@ V V @ sXsXsXsXsXsXsXsXsXsXsXsXsXsXsXsXsXsXsXsXsXsXsXsXsXsXsXsXsXsX",
"sXsXsXsXsXsXsXsXsXsXsXsXsXsXsXsXsXsXsXsXsXsXsXsXsXsXsXsXsXsX@ K.K.@ sXsXsXsXsXsXsXsXsXsXsXsXsXsXsXsXsXsXsXsXsXsXsXsXsXsXsXsXsXsX",
"sXsXsXsXsXsXsXsXsXsXsXsXsXsXsXsXsXsXsXsXsXsXsXsX* * * $ # @ % V.H.@ # $ $ $ * * sXsXsXsXsXsXsXsXsXsXsXsXsXsXsXsXsXsXsXsXsXsXsXsX",
"sXsXsXsXsXsXsXsXsXsXsXsXsXsXsXsXsXsXsXsXsXsXsX* * # # 1 B ) Y F.F.Y ) B 1 % # * * sXsXsXsXsXsXsXsXsXsXsXsXsXsXsXsXsXsXsXsXsXsXsX",
"sXsXsXsXsXsXsXsXsXsXsXsXsXsXsXsXsXsXsXsXsXsXsX* % ; t H y.u.u.L L u.y.y.H 1 $ $ * sXsXsXsXsXsXsXsXsXsXsXsXsXsXsXsXsXsXsXsXsXsXsX",
"sXsXsXsXsXsXsXsXsXsXsXsXsXsXsXsXsXsXsXsXsXsXsX* # < J d.T m N ; > m m T d.K 1 # * sXsXsXsXsXsXsXsXsXsXsXsXsXsXsXsXsXsXsXsXsXsXsX",
"sXsXsXsXsXsXsXsXsXsXsXsXsXsXsXsXsXsXsXsXsXsX* * @ 9 J a.d.t.N ; > m t.d.d.a.t @ * $ sXsXsXsXsXsXsXsXsXsXsXsXsXsXsXsXsXsXsXsXsXsX",
"sXsXsXsXsXsXsXsXsXsXsXsXsXsXsXsXsXsXsXsXsX* $ $ < c G i.a.K N > > N K i.d.S.B > * $ * sXsXsXsXsXsXsXsXsXsXsXsXsXsXsXsXsXsXsXsXsX",
"sXsXsXsXsXsXsXsXsXsXsXsXsXsXsXsXsXsXsXsXsX* # * b G G a.t.v m : 8 m m T d.d.t.M * # $ sXsXsXsXsXsXsXsXsXsXsXsXsXsXsXsXsXsXsXsXsX",
"sXsXsXsXsXsXsXsXsXsXsXsXsXsXsXsXsXsXsXsXsX* & * c m G i.d.y.N ; > G y.d.d.a.D.P 5 # * sXsXsXsXsXsXsXsXsXsXsXsXsXsXsXsXsXsXsXsXsX",
"sXsXsXsXsXsXsXsXsXsXsXsXsXsXsXsXsXsXsXsXsX* # * t v N y.S.a.N ; ; G i.A.a.a.F.Y * # * sXsXsXsXsXsXsXsXsXsXsXsXsXsXsXsXsXsXsXsXsX",
"sXsXsXsXsXsXsXsXsXsXsXsXsXsXsXsXsXsXsXsXsX* # * M K T A.S.i.G r r G i.S.d.D.S.Y * # * sXsXsXsXsXsXsXsXsXsXsXsXsXsXsXsXsXsXsXsXsX",
"sXsXsXsXsXsXsXsXsXsXsXsXsXsXsXsXsXsXsX5 * 5 # $ Y D.a.a.d.i.N M M m i.p.a.a.D.Y 5 # * sXsXsXsXsXsXsXsXsXsXsXsXsXsXsXsXsXsXsXsXsX",
"sXsXsXsXsXsXsXsXsXsXsXsXsXsXsXsX$ * # # # % % 5 s.D.H t r r : < : < r t t H D.Y * % * sXsXsXsXsXsXsXsXsXsXsXsXsXsXsXsXsXsXsXsXsX",
"sXsXsXsXsXsXsXsXsXsXsXsXsXsXsX5 * % 5 p q 5 % * P K < % X X + + + @ o X % < T T 5 # * sXsXsXsXsXsXsXsXsXsXsXsXsXsXsXsXsXsXsXsXsX",
"sXsXsXsXsXsXsXsXsXsXsXsXsXsX$ $ # & d D z q @ * c 3 % * 5 8 8 6 8 8 8 5 & # 1 c $ # * sXsXsXsXsXsXsXsXsXsXsXsXsXsXsXsXsXsXsXsXsX",
"sXsXsXsXsXsXsXsXsXsXsXsXsXsX$ # % d k k k w @ $ ; $ # r ~ 6.5.5.5.6.6.~ d # $ ; * * * sXsXsXsXsXsXsXsXsXsXsXsXsXsXsXsXsXsXsXsXsX",
"sXsXsXsXsXsXsXsXsXsXsXsXsXsXO 6 F @.<.x <.F d @ @ = l <.w.0.0.0.w.0.q.7.^ l 5 @ * * * sXsXsXsXsXsXsXsXsXsXsXsXsXsXsXsXsXsXsXsXsX",
"sXsXsXsXsXsXsXsXsXsXsXsXsX* r D 3.e.3.4.4.Y.+.w # > z 6.8.8.7.7.7.7.7.0.8.D 6 @ # 5 $ sXsXsXsXsXsXsXsXsXsXsXsXsXsXsXsXsXsXsXsXsX",
"sXsXsXsXsXsXsXsXsXsXsXsXsX* H.M.5 O.Z.c.l.v.Z.3.q X = j 5.0.8.w.8.7.7.q.6.w @ # @ $ sXsX* * 5 sXsX* * sXsXsXsXsXsXsXsXsXsXsXsXsX",
"sXsXsXsXsXsXsXsXsXsXsXsXsXsXC t ; K.2.A XX*.Z 3.j 5 # = k ^ ~ ! <.7.0./ y % h -.$.8 o * @     $ # X   % sXsXsXsXsXsXsXsXsXsXsXsX",
"sXsXsXsXsXsXsXsXsXsXsXsXsXsXsXX 8 h.b $ M.t 7 3.4.D % + r z j h ! w.q.W X o $.&X~.R 0 % g ( _ 4 2 ( ' e % sXsXsXsXsXsXsXsXsXsXsX",
"sXsXsXsXsXsXsXsXsXsXsXsXsXsXsXsXsX# $ $ # o p 3.+Xm.@ % p z k j ~ 7.q.Q + @ U b.l.%X*.5 x.tXaXe E 9XuX_   # sXsXsXsXsXsXsXsXsXsX",
"sXsXsXsXsXsXsXsXsXsXsXsXsXsXsXsXsXsXsXsXsXsXsXp f r $ sX5 w 8 5 d ^ q.( + @ I &XW.`.Q.L.#X1X4XP.).1X,Xn o 5 sXsXsXsXsXsXsXsXsXsX",
"sXsXsXsXsXsXsXsXsXsXsXsXsXsXsXsXsXsXsXsXsXsXsX@ o @ sXsXsX% % sX& p Q l % % h I S A I h.*.R R h.f.I E 7 @ sXsXsXsXsXsXsXsXsXsXsX",
"sXsXsXsXsXsXsXsXsXsXsXsXsXsXsXsXsXsXsXsXsXsXsXsXsXsXsXsXsXsXsXsXsX$ $ * & * * * 5 $ $ $ $ $ * * * * * * 5 sXsXsXsXsXsXsXsXsXsXsX"
};
