/* XPM */
static char *result[] = {
/* columns rows colors chars-per-pixel */
"64 64 235 2 ",
"   c #0B0403",
".  c #0E0E0E",
"X  c #130602",
"o  c #1C0502",
"O  c #140905",
"+  c #1A0904",
"@  c #130D0B",
"#  c #1C120C",
"$  c #141212",
"%  c #1C1411",
"&  c #181818",
"*  c #1A1817",
"=  c #220301",
"-  c #240C05",
";  c #2B0D06",
":  c #2C0E08",
">  c #2B0704",
",  c #320C06",
"<  c #3A0A05",
"1  c #330B06",
"2  c #25130A",
"3  c #2B1108",
"4  c #23190C",
"5  c #34130A",
"6  c #3B140C",
"7  c #341A0E",
"8  c #3D160B",
"9  c #221914",
"0  c #2A1A13",
"q  c #281C18",
"w  c #3B1B12",
"e  c #351C16",
"r  c #2D241D",
"t  c #342314",
"y  c #3B2412",
"u  c #3B251E",
"i  c #352B1D",
"p  c #3A2B1C",
"a  c #36241A",
"s  c #3D311D",
"d  c #2B2926",
"f  c #3B2C29",
"g  c #362A26",
"h  c #3A312A",
"j  c #35312B",
"k  c #3D3B3B",
"l  c #363433",
"z  c #440C05",
"x  c #4A0C05",
"c  c #490E08",
"v  c #520F07",
"b  c #560D07",
"n  c #41140C",
"m  c #4B120A",
"M  c #4A1C0D",
"N  c #431A0C",
"B  c #54120A",
"V  c #591109",
"C  c #5C180E",
"Z  c #421C13",
"A  c #4B1911",
"S  c #531B11",
"D  c #5C1C13",
"F  c #63150C",
"G  c #67160E",
"H  c #631E14",
"J  c #6C1A11",
"K  c #731D13",
"L  c #7A1A11",
"P  c #6E0C07",
"I  c #4C200C",
"U  c #40200F",
"Y  c #4C2115",
"T  c #4A241D",
"R  c #452818",
"E  c #542216",
"W  c #542519",
"Q  c #55291B",
"!  c #5C2C1C",
"~  c #592816",
"^  c #4C361B",
"/  c #5B331B",
"(  c #5B240F",
")  c #6C2114",
"_  c #6B2319",
"`  c #672718",
"'  c #712419",
"]  c #7B2619",
"[  c #79291D",
"{  c #772316",
"}  c #65341F",
"|  c #69331E",
" . c #61391E",
".. c #76361D",
"X. c #422F29",
"o. c #472B21",
"O. c #542D24",
"+. c #572A23",
"@. c #43342A",
"#. c #4B352C",
"$. c #483628",
"%. c #5C3521",
"&. c #553827",
"*. c #433A34",
"=. c #433B39",
"-. c #4A3E3B",
";. c #4C3B32",
":. c #5B3C37",
">. c #612E26",
",. c #7C2F21",
"<. c #693B23",
"1. c #673624",
"2. c #753522",
"3. c #7A3A22",
"4. c #683933",
"5. c #54452B",
"6. c #4C413B",
"7. c #45413D",
"8. c #53433C",
"9. c #574536",
"0. c #6B4225",
"q. c #6A4829",
"w. c #754826",
"e. c #745129",
"r. c #7F582D",
"t. c #634838",
"y. c #78453A",
"u. c #66563C",
"i. c #7C5B31",
"p. c #74643C",
"a. c #494949",
"s. c #4A4744",
"d. c #584B45",
"f. c #59514E",
"g. c #535252",
"h. c #5A5A5A",
"j. c #5B5754",
"k. c #674E43",
"l. c #67544A",
"z. c #77564B",
"x. c #675B54",
"c. c #7A5855",
"v. c #754A45",
"b. c #66605E",
"n. c #7E6151",
"m. c #766456",
"M. c #7C604C",
"N. c #626261",
"B. c #6B6A6A",
"V. c #6B6360",
"C. c #726E6C",
"Z. c #756C64",
"A. c #79726A",
"S. c #747473",
"D. c #7A7573",
"F. c #7C7B7B",
"G. c #7C7975",
"H. c #881A13",
"J. c #88110A",
"K. c #81291A",
"L. c #8B2C1D",
"P. c #8B231A",
"I. c #80301B",
"U. c #A42818",
"Y. c #832D20",
"T. c #8B2D20",
"R. c #883124",
"E. c #863E28",
"W. c #833A24",
"Q. c #9A392D",
"!. c #973626",
"~. c #9B3C34",
"^. c #883833",
"/. c #A63E2F",
"(. c #8A4126",
"). c #86482A",
"_. c #97442A",
"`. c #8A4839",
"'. c #835D30",
"]. c #885F34",
"[. c #925231",
"{. c #A54331",
"}. c #A95637",
"|. c #886535",
" X c #976F3B",
".X c #8C4241",
"XX c #844C46",
"oX c #855249",
"OX c #945648",
"+X c #835C57",
"@X c #914C41",
"#X c #AE4E43",
"$X c #B34A45",
"%X c #B65A4F",
"&X c #876547",
"*X c #8C6752",
"=X c #91775D",
"-X c #966C4F",
";X c #A07840",
":X c #AE7F44",
">X c #AC7251",
",X c #836C65",
"<X c #887568",
"1X c #827574",
"2X c #8B7673",
"3X c #847975",
"4X c #887D78",
"5X c #927C78",
"6X c #957977",
"7X c #947968",
"8X c #C25853",
"9X c #D36962",
"0X c #CA7859",
"qX c #AA8345",
"wX c #B3934F",
"eX c #95816B",
"rX c #898179",
"tX c #888179",
"yX c #978279",
"uX c #DD8476",
"iX c #E0937D",
"pX c #858484",
"aX c #8A8684",
"sX c #8D8984",
"dX c #8C8A89",
"fX c #928685",
"gX c #9A8B86",
"hX c #98928A",
"jX c #929190",
"kX c #9D9A9A",
"lX c #A48A88",
"zX c #A2A1A1",
"xX c #AAAAAA",
"cX c gray72",
"vX c None",
/* pixels */
"vXvXvXvXvXvXvXvXvXvXvXvXvXvXvXvXvXvXvXvXvXN.vXvXvXvXvXvXvXvXvXvXvXvXvXvXvXvXvXvX8.dXvXvXvXvXvXvXvXvXvXvXvXvXvXvXvXvXvXvXvXvXvXvX",
"vXvXvXvXvXvXvXvXvXvXvXvXvXvXvXvXvXvXvXvXdXd vXvXvXvXvXvXvXvXvXvXvXvXvXvXvXvXvXvX4 G.vXvXvXvXvXvXvXvXvXvXvXvXvXvXvXvXvXvXvXvXvXvX",
"vXvXvXvXvXvXvXvXvXvXvXvXvXvXvXvXvXvXvXvXtX5.vXvXvXvXvXvXvXn.! <.} 5XvXvXvXvXvXvXa aXvXvXvXvXvXvXvXvXvXvXvXvXvXvXvXvXvXvXvXvXvXvX",
"vXvXvXvXvXvXvXvXvXvXvXvXvXvXvXvXvXvXvXvXF.9.hXtXtXtXtX^ ^ <.} | | W E 3XG.tXrXaXu.hXvXvXvXvXvXvXvXvXvXvXvXvXvXvXvXvXvXvXvXvXvXvX",
"vXvXvXvXvXvXvXvXvXvXvXvXvXvXvXvXvXvXvXvXG.u.p.$.^ 5.R ^ 0.|. X X].0.Q n i 5.5.5.u.hXvXvXvXvXvXvXvXvXvXvXvXvXvXvXvXvXvXvXvXvXvXvX",
"vXvXvXvXvXvXvXvXvXvXvXvXvXvXvXvXvXvXvXvXvXsXi i p s 7 ^ '.qXqXwXwXqXq.n t s s i sXvXvXvXvXvXvXvXvXvXvXvXvXvXvXvXvXvXvXvXvXvXvXvX",
"vXvXvXvXvXvXvXvXvXvXvXvXvXvXvXvXvXvXvXvXvXvXD.x.y r y y  . XwXwXwXr.Q Y 0 p x.G.vXvXvXvXvXvXvXvXvXvXvXvXvXvXvXvXvXvXvXvXvXvXvXvX",
"vXvXvXvXvXvXvXvXvXvXvXvXvXvXvXvXvXvXvXvXvXvXvXvXtXl 3 8 4 8 / I n M I S |.E.gXvXvXvXvXvXvXvXvXvXvXvXvXvXvXvXvXvXvXvXvXvXvXvXvXvX",
"vXvXvXvXvXvXvXvXvXvXvXvXvXvXvXvXvXfX1X2X2X2X2XF.N.k I e.8 Y 0./ Z w. X/ =XhXlX1X1X2X2X2XvXvXvXvXvXvXvXvXvXvXvXvXvXvXvXvXvXvXvXvX",
"vXvXvXvXvXvXvXvXvXvXvXvXvXvXvXvXaXO.< x x x B h.G.a.I / 8 Z / ~ Y w.'.( eXeX`.z < z x x 2XfXvXvXvXvXvXvXvXvXvXvXvXvXvXvXvXvXvXvX",
"vXvXvXvXvXvXvXvXvXvXvXvXvXvXvXfXA z v V V V K.pXkXC.E 3 7 W R q. .~ S u.xXjX&XD v b V V V ` gXvXvXvXvXvXvXvXvXvXvXvXvXvXvXvXvXvX",
"vXvXvXvXvXvXvXvXvXvXvXvXvXvXvX1Xz x V b V V R.pXzXG.w U Y  .e.|.0.( D x.cXjXoXV b V V V G G 6XvXvXvXvXvXvXvXvXvXvXvXvXvXvXvXvXvX",
"vXvXvXvXvXvXvXvXvXvXvXvXvXvXvX, x V V V J w.R.pXzXm.3 5 / e.'.i.%.` D x.cXjXXX] ) ] !.!.P J J vXvXvXvXvXvXvXvXvXvXvXvXvXvXvXvXvX",
"vXvXvXvXvXvXvXvXvXvXvXvXvXvXG.3 < z C K.Q.Q.G l.G.*XN 5 5 Y / &.! H ` yXxX=X2.D K.~.$XL.V V ) vXvXvXvXvXvXvXvXvXvXvXvXvXvXvXvXvX",
"vXvXvXvXvXvXvXvXvXvXvXvXvXfX4 2 ; - n ' L.T.) d.Z.Z.( S n W <.0.1.' 3.jXhXA.R M ) ] L.) x b | 6XvXvXvXvXvXvXvXvXvXvXvXvXvXvXvXvX",
"vXvXvXvXvXvXvXvXvXvXvXvXvX8.4 7 > > 5 M ) ) n d.A.D.@X(.D !  . .} W.-XjXdXA.R - n ) ' H x b | | vXvXvXvXvXvXvXvXvXvXvXvXvXvXvXvX",
"vXvXvXvXvXvXvXvXvXvXvXvXV.r y U ; - - 8 8 ; - 8.,XF.F.qX}.E n Y } y.2XjXjXZ.o.- ; 8 A c x v ..e.vXvXvXvXvXvXvXvXvXvXvXvXvXvXvXvX",
"vXvXvXvXvXvXvXvXvXvXvXvX6.4 R 7 > - 3 5 - + + t.m.1X7X>XOXD z M ~ k.4XxXlXXXe + + ; , 5 z m w.r.2XvXvXvXvXvXvXvXvXvXvXvXvXvXvXvX",
"vXvXvXvXvXvXvXvXvXvXvXvX6.t R 5 < < 3 + X X + ` q.Z..X`.`.c.N.N.C.aXzXxXg.4.e - o O - < x V } '.n.vXvXvXvXvXvXvXvXvXvXvXvXvXvXvX",
"vXvXvXvXvXvXvXvXvX7.5.tXl 4 , , < < < ; X X - ' 2.y.Y.[ OX<XS.B.C.jXkXaX.XZ.;.3 + X - 1 v v m } n.vXpXvXvXvXvXvXvXvXvXvXvXvXvXvX",
"vXvXvXvXvXvXvXvXvX7.;.p # 5 > ; 1 5 n = O X < ( >.1.4.z.7XgXG.N.B.F.Z.z.c.A.+X3 + O - - B c < ) n.vXk vXvXvXvXvXvXvXvXvXvXvXvXvX",
"vXvXvXvXvXvXvXvXvXpXp s g W - O O O - g g.O < o.@.g.C.dXjXF.g.N.N.d.+.J f.,XC.p f g + + 3 ; - ' &X&Xp vXvXvXvXvXvXvXvXvXvXvXvXvX",
"vXvXvXvXvXvXvXvXvXvX- i p 2.A + O O X =.D.@ - R *.h.B.4XF.g.d a.N.s.o.J ! t.f.e -.-.X X + + N 1.e.q.s vXvXvXvXvXvXvXvXvXvXvXvXvX",
"vXvXvXvXvXvXvXvXvXvX- - 7 R.D 3 - D.xXxXxX-.O w @.7.a.s.a.d % # r =.X.J D D D + vXvX=.+ + + D _ ! i i vXvXvXvXvXvXvXvXvXvXvXvXvX",
"vXvXvXvXvXvXvXvXvXvX< < ..!.R.: D.xXxXxXkXf ; o.u * $ $ * 4.`.P.G e 0 % ; w 7 3 aXvXvXvX# - A D D C oXvXvXvXvXvXvXvXvXvXvXvXvXvX",
"vXvXvXvXvXvXvXvXvXaXc V ..{.R.6 1XxXxXxX1X: n oXv.X.$ & h n.*XL.K v.:.*.$.9.5.8 d.vXvXvXh - ' E.!.F V vXvXvXvXvXvXvXvXvXvXvXvXvX",
"vXvXvXvXvXvXvXvXvX8.L...L R.R.A 1XxXxXpXf 6 n +X3X:.$ -.A.hX7XH.H.+X*X=XpX<Xt.D +.gXvXvXD.: ' (._.L ) vXvXvXvXvXvXvXvXvXvXvXvXvX",
"vXvXvXvXvXvXvXvXvX-.3.w.G D [ &.kXxXxXD.- 4 M k.m.g A h.pXzX5X] L ^.`.=XhXrXy.D ,.5XvXvXD.+ S J ) I.I.vXvXvXvXvXvXvXvXvXvXvXvXvX",
"vXvXvXvXvXvXvXvXvX8.<.i.( n - 8.xXxXxX+ 5 5 & d j 5 D 4.aXzXaX[ P H.K.7XhX`.R.V ,.B 2XvXD.+ - - ] }.}.vXvXvXvXvXvXvXvXvXvXvXvXvX",
"vXvXvXvXvXvXvXvXvX-.<.|...{ 6 b.xXxXxX= w t & w d a D +.h.dX<XJ F J.J.R.oXJ B V _ H 6XvXaXf , V (. X}.vXvXvXvXvXvXvXvXvXvXvXvXvX",
"vXvXvXvXvXvXvXvXvX-.2.|.(.] 8.xXxXxXxX+ U * & 0 0 N D +.h.B.4.b P L J.P.Y.J B b R...5XvXvXG.5 H (.;Xw.vXvXvXvXvXvXvXvXvXvXvXvXvX",
"vXvXvXvXvXvXvXvXvX-._ [.!.' xXxXxXxXS.@ 9 $ . & q M V +.N.h.4.B B G L U.K.J c z )...+XvXvXaXt ' ). X..vXvXvXvXvXvXvXvXvXvXvXvXvX",
"vXvXvXvXvXvXvXvXvX-.K !.(.3.oXxXB.a.$ . . . . & q n V s.N.h.8.H v G H.U.J v < x '.W.) vXvXvX8.6 3._.' vXvXvXvXvXvXvXvXvXvXvXvXvX",
"vXvXvXvXvXvXvXvXx.q A H W.Q._ OXg % $ . . . $ & r 8 V *.g.g.8.F x V J H.C < < H '.E._ vXvXvXsX- W.L.F y.vXvXvXvXvXvXvXvXvXvXvXvX",
"vXvXvXvXvXvXvXvX7.= < c Q.T.' D $ . $ $ $ % 9 r X.X.I Z h &.<.D b x x J z < z C 1.0.Y vXvXvXoX' |.| B c vXvXvXvXvXvXvXvXvXvXvXvX",
"vXvXvXvXvXvXvXvX-.O < m Y.Z % $ % . . $ % 9 r $.9.5.h Y I w Q C b x x ( m < z D 0.%.Z vXvXyXY.T./.!.v x :.vXvXvXvXvXvXvXvXvXvXvX",
"vXvXvXvXvXvXvXvXf o < z H 5 $ % # $ # % 9 i ;.;.@.@.l f A B V D b m m W S x m D q.%.8 vXvXlX/.Q.,.R.B z :.vXvXvXvXvXvXvXvXvXvXvX",
"vXvXvXvXvXvXvXS.  O o : ; + % # 0 0 0 R @.&.O.t 2 5 -.#.Y E E W W :.1.{ m c M w / U 3 vXvX5X[ 5 w S < > :.vXvXvXvXvXvXvXvXvXvXvX",
"vXvXvXvXvXvXvXD.X X X - - # * % 0 U R #.&.O.5 + o 1 %.:.&.#.*.f *.j.d.K.m g u 3 ^ y + vXvX3X5 O ; m ; = e V.vXvXvXvXvXvXvXvXvXvX",
"vXvXvXvXvXvXvXD.+   X   O + 9 R T &.&.Q Z R - + o = 8 O.d.j.s.j k h.h.&.R h f - 7 3 G.vXvXD.+ xX- n > +   =.vXvXvXvXvXvXvXvXvXvX",
"vXvXvXvXvXvXvXvXN.k vXvXhXd.@.@.O.Q W 3 - y ; X + > < < w k l j k a.a.#.y a 7 ; 7 @.aXvXvXvX-.O O q -.-.vXvXvXvXvXvXvXvXvXvXvXvX",
"vXvXvXvXvXvXvXvXvXvXvXvXx.O.$.x.l.z.z.X + 5 6 X X + - = - O . d l l d d 4 0 4 N 3 l.vXvXvXvXx.-.=.V.vXvXvXvXvXvXvXvXvXvXvXvXvXvX",
"vXvXvXvXvXvXvXvXvXvXvXvXjXrX5XvXvXvXvX  X - - - o + -     g.S.. % @ . @ - 3 3 ; : 8 3XvXvXvXvXvXvXvXvXvXvXvXvXvXvXvXvXvXvXvXvXvX",
"vXvXvXvXvXvXvXvXvXvXvXvXvXvXvXvXvXvXvXX X - 5 5 - + - g S.vXvXS.S.d X   X + - - - 5 3XvXvXvXvXvXvXvXvXvXvXvXvXvXvXvXvXvXvXvXvXvX",
"vXvXvXvXvXvXvXvXvXvXvXvXvXvXvXvXvXvXvX  X X - O + + - vXvXvXvXvXvXk   +   X + - - - G.vXvXvXvXvXvXvXvXvXvXvXvXvXvXvXvXvXvXvXvXvX",
"vXvXvXvXvXvXvXvXvXvXvXvXvXvXvXvXvXvXvXg X   + X + # 8.vXvXvXvXvXvXvX=.+ + X # + - f aXvXvXvXvXvXvXvXvXvXvXvXvXvXvXvXvXvXvXvXvXvX",
"vXvXvXvXvXvXvXvXvXvXvXvXvXvXvXvXvXvXvXaXg X X X + + vXvXvXvXvXvXvXvXb.+ X X + + X D.vXvXvXvXvXvXvXvXvXvXvXvXvXvXvXvXvXvXvXvXvXvX",
"vXvXvXvXvXvXvXvXvXvXvXvXvXvXvXvXvXvXvXvXD.X X X + 3 vXvXvXvXvXvXvXvXvXX - X O + f vXvXvXvXvXvXvXvXvXvXvXvXvXvXvXvXvXvXvXvXvXvXvX",
"vXvXvXvXvXvXvXvXvXvXvXvXvXvXvXvXvXvXvXvXD.O + + 5 6 vXvXvXvXvXvXvXvXvX  + O + - fXvXvXvXvXvXvXvXvXvXvXvXvXvXvXvXvXvXvXvXvXvXvXvX",
"vXvXvXvXvXvXvXvXvXvXvXvXvXvXvXvXvXvXvXvXD.; 5 S ` N vXvXvXvXvXvXvXvXvXX - O - - 1XvXvXvXvXvXvXvXvXvXvXvXvXvXvXvXvXvXvXvXvXvXvXvX",
"vXvXvXvXvXvXvXvXvXvXvXvXvXvXvXvXvXvXvXD.- ( ` { [ [ vXvXvXvXvXvXvXvXk O ! D ! Q c.vXvXvXvXvXvXvXvXvXvXvXvXvXvXvXvXvXvXvXvXvXvXvX",
"vXvXvXvXvXvXvXvXvXvXvXvXvXvXvXvXvXvXvXg.: D ' ' _ _ vXvXvXvXvXvXvXvXvXX R.$X~.Y.y.vXvXvXvXvXvXvXvXvXvXvXvXvXvXvXvXvXvXvXvXvXvXvX",
"vXvXvXvXvXvXvXvXvXvXvXvXvXvXvXvXvXvXvXX : D _ ,.) _ vXvXvXvXvXvXvXvXvXX T.%X$XY.{ 5XvXvXvXvXvXvXvXvXvXvXvXvXvXvXvXvXvXvXvXvXvXvX",
"vXvXvXvXvXvXvXvXvXvXvXvXvXvXvXvXvXvXvX+ m S _ Q.~._ vXvXvXvXvXvXvXvXvXX !.>X0X_ ' 4.fXvXvXvXvXvXvXvXvXvXvXvXvXvXvXvXvXvXvXvXvXvX",
"vXvXvXvXvXvXvXvXvXvXvXvXvXvXvXvXvXvXvX; D C ' _.[.' vXvXvXvXvXvXvXvXvXX K.}.9X] ] D 2XvXvXvXvXvXvXvXvXvXvXvXvXvXvXvXvXvXvXvXvXvX",
"vXvXvXvXvXvXvXvXvXvXvXvXvXvXvXvXvXvX  : H H R.).Q.2.n vXvXvXvXvXvXvXvX+ K.8XiXR.K.J 2XvXvXvXvXvXvXvXvXvXvXvXvXvXvXvXvXvXvXvXvXvX",
"vXvXvXvXvXvXvXvXvXvXvXvXvXvXvXvXvXvX  5 V D R.E.E._.n vXvXvXvXvXvXvXaX- Q.9XuXQ.Y.F z vXvXvXvXvXvXvXvXvXvXvXvXvXvXvXvXvXvXvXvXvX",
"vXvXvXvXvXvXvXvXvXvXvXvXvXvXvXvXvXvX  6 F F K.L.K.!.6 vXvXvXvXvXvXvX=.3 ~.$X8X/.K C m vXvXvXvXvXvXvXvXvXvXvXvXvXvXvXvXvXvXvXvXvX",
"vXvXvXvXvXvXvXvXvXvXvXvXvXvXvXvXvXvX  B J J ] ] K ] n vXvXvXvXvXvXvX=.3 ] K.T.!.K J S vXvXvXvXvXvXvXvXvXvXvXvXvXvXvXvXvXvXvXvXvX",
"vXvXvXvXvXvXvXvXvXvXvXvXvXvXvXvXvXvXS.m F J K { J K 4XvXvXvXvXvXvXvXk + K L.K./.Y.J C vXvXvXvXvXvXvXvXvXvXvXvXvXvXvXvXvXvXvXvXvX",
"vXvXvXvXvXvXvXvXvXvXvXvXvXvXvXvXvXvXvXn n V 6 V : C vXvXvXvXvXvXvXvXvX  J K J _ H 6 B vXvXvXvXvXvXvXvXvXvXvXvXvXvXvXvXvXvXvXvXvX",
"vXvXvXvXvXvXvXvXvXvXvXvXvXvXvXvXvXvXvX3 ; ; ; n : : vXvXvXvXvXvXvXvXvXvX: m 5 A 6 #.O.vXvXvXvXvXvXvXvXvXvXvXvXvXvXvXvXvXvXvXvXvX",
"vXvXvXvXvXvXvXvXvXvXvXvXvXvXvXvXvXvXvXd.X.- ; o.#.- vXvXvXvXvXvXvXvXvXvXX.6 : : #.2X+XvXvXvXvXvXvXvXvXvXvXvXvXvXvXvXvXvXvXvXvXvX",
"vXvXvXvXvXvXvXvXvXvXvXvXvXvXvXvXvXvXvXvXvXD.D.-.G.l.vXvXvXvXvXvXvXvXvXvXD.- f.3 kXkXfXvXvXvXvXvXvXvXvXvXvXvXvXvXvXvXvXvXvXvXvXvX"
};
