/* XPM */
static char *result[] = {
/* columns rows colors chars-per-pixel */
"64 64 123 2 ",
"   c #694F3E",
".  c #60533F",
"X  c #6B523E",
"o  c #7C4E43",
"O  c #635440",
"+  c #6D5544",
"@  c #675843",
"#  c #6D5946",
"$  c #6E5748",
"%  c #6E5849",
"&  c #745545",
"*  c #7A5546",
"=  c #745946",
"-  c #7B5946",
";  c #765648",
":  c #7C5649",
">  c #755B4A",
",  c #7B5B4B",
"<  c #7D5E51",
"1  c #6F614F",
"2  c #756047",
"3  c #76614D",
"4  c #7B614D",
"5  c #756351",
"6  c #7D6352",
"7  c #776854",
"8  c #7E6956",
"9  c #7D6758",
"0  c #7D6B5A",
"q  c #7F725D",
"w  c #815346",
"e  c #82554A",
"r  c #8A554C",
"t  c #825C4D",
"y  c #8A5A4E",
"u  c #8B5750",
"i  c #835E51",
"p  c #8B5D51",
"a  c #83614E",
"s  c #89634F",
"d  c #846453",
"f  c #8A6455",
"g  c #846956",
"h  c #8A6856",
"j  c #836458",
"k  c #8B6659",
"l  c #856C5A",
"z  c #8B6C5C",
"x  c #926356",
"c  c #926A56",
"v  c #916659",
"b  c #926C5D",
"n  c #996D5F",
"m  c #85715D",
"M  c #8C725E",
"N  c #92715E",
"B  c #8D6E60",
"V  c #946E61",
"C  c #9A6E62",
"Z  c #857362",
"A  c #8C7462",
"S  c #877965",
"D  c #8D7965",
"F  c #8F7768",
"G  c #8E7C69",
"H  c #937463",
"J  c #9A7465",
"K  c #937966",
"L  c #997966",
"P  c #967668",
"I  c #9B7669",
"U  c #957C6A",
"Y  c #9B7C6C",
"T  c #957F70",
"R  c #9D7E70",
"E  c #A17265",
"W  c #A3766A",
"Q  c #A27C6D",
"!  c #AA7A6E",
"~  c #A37E72",
"^  c #A87F71",
"/  c #8F806C",
"(  c #95816D",
")  c #9B816E",
"_  c #958472",
"`  c #9C8472",
"'  c #9D8975",
"]  c #9F8778",
"[  c #9E8C7A",
"{  c #9F917E",
"}  c #A2826E",
"|  c #A9806F",
" . c #A38473",
".. c #A98474",
"X. c #A38A76",
"o. c #AA8976",
"O. c #A58678",
"+. c #AB8679",
"@. c #A48C7A",
"#. c #AB8C7B",
"$. c #B18376",
"%. c #B38779",
"&. c #B28B7D",
"*. c #A4917D",
"=. c #AB917E",
"-. c #B2927F",
";. c #A48E81",
":. c #AA8F80",
">. c #B78A82",
",. c #B88E82",
"<. c #A59382",
"1. c #AC9483",
"2. c #AA9985",
"3. c #B29583",
"4. c #BA9284",
"5. c #B19A86",
"6. c #B69388",
"7. c #BA9688",
"8. c #B39B8A",
"9. c #BA9C8B",
"0. c #B6A08D",
"q. c #BFA28E",
"w. c #C39C91",
/* pixels */
"I i , t t i Q #.P , > 6 m ( 8 > % % % 7 _ P 9 < 5 9 l U ` l > = ; l  .L k , t d d b P g , 3 3 > 6 X.3.` d i i d V O. .f , i - 6 ",
"H ; ; * ; , H L 6 ; > 1 A [ q @ O O . 1 Z 0 = > ; > > m F > X + + > A K j ; i d d z z d % > = X 6 X.+.P , * * * k I W t : : & , ",
") h h A L Y ) ) U K G K *.2.*.( G S Z ( _ U J j < , - A H - X - , z  .o.Y J h d H Y Y K m 8 = + a Y  . .) K K K J } o.z 6 l H  .",
" . .| H z H Q .. .Y )  .@.@.@.@.1.5.] H P P b d d f p L  .J J I } o.#.X.| } L H Q O.@. . .+.) Y ) ` U m 0 l m l z M K K Y o. .L ",
"z Q | f - t p k k i i f k k j B :.>.I , , 4 - - , e t d h l Y 1.` z j d g g l k k B j j P 6.6.~ H l < + + & > > ; > - , H ..J - ",
"t v N d e t , , * ; ; : , - - g :.:.F & & = ; ; , ; = ; & & H 3. ., : ; - - ; : : : ; & i :.6.I , & ; ; ; ; ; ; ; < ; & 4 Y H > ",
"e x b f - * * : : , i i t : : t Q ~ C : * * e d d f f z h t b &.Q t : e : : : : : , : : i I I k : : , : ; ; - ; < ; - & t  ..., ",
"} ..| X.}  .`  .R  .` U U P P T +.#.;. . .)  .` ` ` ` =.=.' X.X. .Y I Y R R R I I R R R I B B V P I P P H H P F F P Y K Y 1.5.X.",
"1.( M M D K K '  .F F D D ' 2.[ F Z A A T 5.9.' A Z A D [ 9. .m A D A U @.@.H A A H T :.;.B B B A J  .1.` F l l A K ] D m M D U ",
" .8 2 = > > 3 m A ; ; > > F :.F ; + & & , P 3.) < & & - z Q g & ; - ; d L W t t t i k ^ ~ i ; ; ; , b O.L d ; : 4 j z i & * & 4 ",
"K , = = > > j A g ; - ; : i U B : ; & & ; h ` H = * , t k J g , d h , h H d * e i , u C C < o : * * < B d t : < , < d , & ; * d ",
"` ( U U )  .o.o. .Y P I ~ O.~ B F R R R ` @.+.X.K H K H U ] Y z Y ` Y  .+.T L T R R ` O.R T P P H P P L L Y R ~  . .R Y L R Y R ",
"o.0.0.X.L ` +. .I P Y ~ O.~ :.O.R R R I I L P P J A F z H O.#.~ H b J I W Y W Y R U P R 8.:.T B B P P F F U T T L K ) X. .L T Y ",
"f | -.L e t v p e w u p u p W >.W e o : : : * : * * ; * k +.&.C e w w r r r w e e e o p 6.+.i o ; , , , ; ; ; > ; & s Y g ; - , ",
"X y $.! y e u u u r u u u u C %.J : w e i i i e e y e : v >.^ e o w r r r r w e e e o i >.Q i ; , : , ; ; , , , ; & s ( h X = 4 ",
"x s } ! n v k x x C v u : o V +.! v v k i p p e y u p : v 4.,.I W b x p e * y V I C V R :.P < ; & ; < j t : , e , e c Q N f t a ",
"Y L } #.=.@.K H R R R Y H F T 3.8.3.3.+.~ Q Y k e p k C I ! ! Q ~ J .. .L z L 1.0.3.;.6.8.] F D A F U _ ) H H ) } Q } o.} N ) | ",
"M M m ) =.` m l B F T 3.6.] P F P R R @.1. .Y b , t ^ >.C i e i t z 9.#.L H K F T 5.<.T G G G G [ <.( F / / D ( *.) M M M ( -.-.",
"4 4 - N ..b , , i : i ~ w.I : ; ; & & V  .V i b b z | &.C : : : : b -.J i : , - B >.;.< > > > 6 [ ] 9 2 2 # = m ' m # 2 2 g X.X.",
"X - = z  . .V d : : : B 6.O.k ; ; < < B 3...d z ) N N o.V : t k z L +.Q l = = , B 1.R < > ; & < P U g = = # 2 K X.N 2 2 2 2 s ) ",
"K K U X.@.5.1.R B F T ] 2.<.[ ( U ] ' @.8.8.` ` @.X.' ` N / ) =.1.2.0.5.[ K G G [ 8.2._ F Z Z F ] @.` F D U ( ' =.X./ M M M ( } ",
"` ) ) } T Y T @.:.O._ T T ( _ _ ` T T _ ` @.=.` ) ) ( U ) ) ) ) ) Y ( *.5.@._ _ _ U T _ _ S D G U ` @.5.@.) ( ) X.) / M M / / M ",
"; * = X & & < Y O.9 < > ; $ = , ; > ; , < L o.g - , s a t X w t ; = = K #.9 > $ $ $ $ % > > = % % 6 P ] l , > 4 M M 4 2 X 2 2 X ",
"& = = = = & 4 J P > > ; + + % ; < > > - k `  .a & - - w X a 2 X = & = A ` l @ O O $ $ % $ @ # # # 5 U F > 3 4 > 2 7 8 4 2 2 @ X ",
"g M M M M g l ) ' ( K ( F m l l Z l j 6 H o.) g f g d j l m M / D m m ' 2.{ / q Z S F Z Z F q q m / { _ m q m m m g g g 4 4 6 g ",
"M K ( } o.X.} X.=.o.` *.9.1.] ] ` T ) Y  .@.` ) Y  .X.X.) K ' *.*.*.=.2.<.<.*.0.8.1._ _ ;.<.*.2.2.<.<.<.' ' @.X.) / z L Y Y  .L ",
"w X X c Q %.W b V f , J 7. .z z A M U =.3.) B z A L =.o.d , a z L -.X.H H F D ` :.H j z F A U X./ m m M Z U *.#.M h g c Q o.o.f ",
"w w w y E ..v e y k z I 7.L ; ; - = d  . .g * * & , J J , * * , c  .h * : - , H ~ g = ; ; < z ) j X & 2 = 8 X.X.4 X 2 2 - z | f ",
"w w s n W n s , e f z J 4.L d z j 6 l Q J , ; & & f Q V * * : : b ^ k o & : 6 P  .l ; = 2 g L -.} l f - X h } Q , , - - , L } N ",
"N N ) o.-.} N c z z k b  . . .@.U H ` X.Y A Z l B T #.` H M z z Y 1.Y l g B U  .#.Y l A M N ) =.@.) Y A z U #.} H z z g s H W ) ",
"-.X.N N ( ) L L Y H b A H Y #.@.L H U U U _ U U ( _ ] @.<.#.` L Y L P Y Y R R R I H Y =.X.K H K D F H U U L K K U  .#.H h g g c ",
"=.) a 2 a s t t t t t - * d J b , , d d < , , , , : : d J ! p * e e e e : e e : : & k Y K 4 3 3 3 2 > ; > , > + 4 U ) g 4 4 = 2 ",
"&.Q w * e t e e : : : , : , z b i i i < ; o : : : e : t J W y * e * : e : t : : ; & B ~ P 6 , > > > % = 3 4 8 = 4 m N g 4 - = - ",
"Q J h b H H z M z z z B H B L ] T B B A A P H V B z f g J ` J z z z z A A H H F B j I #.] A Z Z Z A Z l m D ) l a z ( z a g d d ",
"b N Y #.3.o.L ( ` ) ] :.X.` T Y U P ] ;.;.O.O.@.R ` ` K ( X.' ' @.2.[ ) ) [ X.@.2.O._ ]  ._ @.5.] ' ' _ ) X.=.U z z N N h )  .N ",
"e e t J  .H , = = , H ..P < - - : < i i < ; + ; i I  ., = , - , K Y 4 X = , - A #.L : , , < P  .< & ; ; & g } ) 2 = a a f Q o.a ",
"t t a b I z , * - t I &.H : ; * , B C ; $ + O & A #.` - ; , - - z H 6 ; & = & l O.J ; : < , l ] l ; ; ; + <  .Y , - , h L o.I t ",
"L Y J H N N z f d A #.5.Y z g m F T [ _ 7 7 5 0 _ 5.<.Z D K A M K ( A Z m m l A X.` A Z m D [ <.T 0 0 Z 0 A @.' g g g N )  .L N ",
"` ` X.X.X.X.' ` ) o.=.*.X.` ' @.@.@.@.1.<.@.[ { ' ` ` [ X.X.@.*.@.@.1.8.1.@.@.*.@.@.;. . .[ [ @.;.5.<.@.] _ _ ( ( ( U ( ( @.1.5.",
"3 = = 3 3 4 m ) X.m d d d d a d i i < B @.=.A > > - = = > > = ; > , P #.I , i 6 j < ; , ; , , ; g  .U < > > > > > = = 4 M ) Y Q ",
"7 = = 2 4 8 ) =.X.z j g h j , , 6 d j 4 K @.A = = = = = = = ; - - , b | J i : < d < - , : , : , z &.o.t - * - * - t t - - X y E ",
"M g a 4 4 M -.q.o.d = d g z g j l l 6 > A X.U 8 4 4 6 g h d - - * t n ..! i : i k z B z j i : ; z #.3.b f h h h h h N c s s s c ",
" .o.X.) M ) o.-.@.H z B Y  .X.@.` ] ) A ` 1.=.' L Y Y L I N t t h J | } I p p J Q ~ W ~ J b k h z ~  .Q ) X.o.) ) ) ) Y } } N n ",
"d h L =.5.} h 2 , B +.3.@.H B H g H #.T L Y U Y =.-.L t * , t b o.%.L J b t b ..~ V v v t b &.&.v p t , g +. .j a H H M } o.h 2 ",
"a s s | -.N - = : , B @.I , ; : : P Y i - < i k o.-.J - - - t h Q L t - = * a N Q I z h g z Q ..f & & X 4 Y } h l M d 4 N ' g X ",
"h h h } -.Q , a 6 i H R P j < < k R R j , , t d J o.n - * e t k L N a > a , z  .7. .g 4 , t m U d = , , 8 K ) g d d 4 4 m ) g 2 ",
"} ) } =.=.H a d V Y O.1.@.O.] _ :.3. .z i i d d J ..Q b h N L  ...H d N Y ) ) =.3.Y g 8 l K ) o.` ` X.o.#.o.) l l b N L ) } ( } ",
"-.) ) }  .I h h H Y  .+. .X.5.5. .` R P z i d b L L ) ) #.3.#.) Y K U K D D U ( ( D ` =.=.' U ( ) ( K D U ( U U )  .1.o.( ) } } ",
"| h - s h f t f t d t , , Y 1. .< ; < < < : e i < e < t J o.H , & & 3 4 % # # > 5 > 0 ` F 3 % 3 3 6 3 3 > > > > 6 m ) l 4 > = , ",
"E t - t p s t t , t , * , L #.Y > ; ; ; : : : < k i : * d | L s - a d z g ; ; : 6 ; B O.L , $ ; > > > ; ; : ; - < 6 l 4 > ; X X ",
"&.| x c v v x k k J J g k Y ..#.F i j j j < i V +.O.b f P Q J N J N J I I k j z k d I O. .k i j j 6 6 6 j 6 j l j 8 D l 8 8 g - ",
"Y } #.=.-. .I L H H Y o.<. ._ #.#.;.<.8.;.T P B P X.5.X.` U ) U } X.) ( ) ] #.@.8.@._ U ' T ] 5.<.T T U U _ [ @.` ) X.` ) =.o.M ",
"g a t h M z t , t t t P Q d z V , < L 8.Y , > > ; A @.K 4 > 6 , N L a = > 4 > F 3. .> > 5 > l ;.X.> $ $ $ i `  .a a a 2 z } m - ",
"- - , d h d t : : : i V I i < e ; ; b ~ z % + + = m *.M ; = ; ; H ) d = - = - z R I ; & , < g ] R > $ $ ; < L R a - - - h L f & ",
"h g h N K h g g j 6 Z T @.Z j j 8 8 S ( m 1 1 5 8 S ' ( 8 6 4 6 L ) l d d 6 j H ..R i 6 l _ :.5.] 9 < < < B R R m d a a b L b a ",
"#.=. .) X.#.#.' ' [ ] ;.<.;.;.;.{ { *.{ { *.2.2.*.*.{ *.] U U X.@.*.@.#.=.1.*.@.*.<.<.;.;.;.;.<.;.;.;.;.;.@.:.:.=.@.} ) X.=.=.X.",
"s a y t t t a a L T 6 < < j 9 < 6 j j l 5 Z [ 1.K 6 = = , , , 4 , d 4 4 N } d , d m z j 6 > 3 6 g j l X.Y g d g g M h d d z g , ",
"w w e t t , - a Q ~ i : : < i < , , : > , , J  .j & & - = = - = * , = = M Y 4 & > j j 6 > % # > 3 4 m L g 4 4 2 2 4 2 2 4 4 > & ",
"t w s a a t a N ..L , , j k < i < , : , - g  . .l < > 4 , 4 4 4 4 2 > a M U 8 3 3 8 0 9 5 3 3 7 4 g M H a 4 s g s 4 - h h a , - ",
"s s h K ) } X.o.X. .) ) Y Y R R L b h d j g ` 3.@.X.' ) U Y ) ` ( ( ) X.@.*.[ ' [ [ *.@.<.*.` ( M g h Y ..L f d f s t f h v f d ",
"M L } } ) X.} M l L O.<.#.` Y ` `  .@.1.X.) ) ) ` @.5.X.L L U } #.X.K d 4 > z #.1.I 6 g K +.3.#.M g H Y )  .3.#.) ) H L } =.=.H ",
"a a ) #.N , , , ; , , B H 6 4 j i 6 P @.N a 4 - , H =.H 4 , , h | Q s - * * t J Q k * * , l ~ O.g - , = ; l #.K > , > , g } z = ",
"s n &.Q s - - - , > , P  .V d , - j  . .h - w X t c Q s w w e p J W y w e y y n W x w e : k ~ :.k ; 4 ; & k I h * ; * - z ~ h = ",
"a t W &.J e , , w f ..&.&.J t w t f b n x c x w x ! n y y y w x ! E p y y x W $.E y e t e d I +.Y h g d k  .&.J t - * g ~ &.Q P "
};
